<?xml version="1.0" encoding="utf-8"?>
<!-- Generator: Adobe Illustrator 15.1.0, SVG Export Plug-In . SVG Version: 6.00 Build 0)  -->
<!DOCTYPE svg PUBLIC "-//W3C//DTD SVG 1.1//EN" "http://www.w3.org/Graphics/SVG/1.1/DTD/svg11.dtd">
<svg version="1.1" id="Layer_1" xmlns="http://www.w3.org/2000/svg" xmlns:xlink="http://www.w3.org/1999/xlink" x="0px" y="0px"
	 width="556px" height="77px" viewBox="0 0 556 77" enable-background="new 0 0 556 77" xml:space="preserve">
<g id="Layer_1_1_">
	<g>
		<rect x="2" y="2" opacity="0.16" enable-background="new    " width="554" height="75"/>
		<rect x="0" fill="#FFFFFF" width="554" height="74"/>
	</g>
	<g>
		<defs>
			<filter id="Adobe_OpacityMaskFilter" filterUnits="userSpaceOnUse" x="5.704" y="2.453" width="62.506" height="67.291">
				<feColorMatrix  type="matrix" values="1 0 0 0 0  0 1 0 0 0  0 0 1 0 0  0 0 0 1 0"/>
			</filter>
		</defs>
		<mask maskUnits="userSpaceOnUse" x="5.704" y="2.453" width="62.506" height="67.291" id="zvEaJT_77_">
			<g filter="url(#Adobe_OpacityMaskFilter)">
				<circle fill="#FFFFFF" cx="39.833" cy="36.307" r="23.733"/>
			</g>
		</mask>
		<g id="zvEaJT_53_" mask="url(#zvEaJT_77_)">
			<rect x="5.704" y="2.453" fill="#662D91" width="62.506" height="67.291"/>
			<g>
				<path fill="#FFFFFF" d="M49.166,32.365c-2.515,2.434-4.438,4.034-4.472,4.062l-0.006,0.005l0.013,0.012l-0.356,0.272
					l-0.167,0.138l-0.006-0.006l-3.557,2.727c0.014,1.137-0.502,2.883-2.61,3.477c-0.541,0.153-0.973,0.296-1.332,0.444
					c0.128,0.335,0.201,0.697,0.201,1.079c0,1.636-1.298,2.963-2.901,2.963c-1.602,0-2.901-1.327-2.901-2.963
					c0-1.399,0.952-2.57,2.23-2.882c0.187-0.971,0.548-1.993,1.214-2.854c0.857-1.105,2.066-1.766,3.598-1.966l2.727-3.53
					l-0.01-0.009l0.144-0.164l0.198-0.257l0.014,0.014l0.076-0.086c1.683-1.926,3.631-3.947,5.381-5.695
					c-0.095-0.127-0.186-0.255-0.285-0.382c0,0-5.678-6.613-15.098-3.369c-9.421,3.245-8.922,11.542-8.984,13.975
					c-0.062,2.434,2.934,12.54,14.226,15.534c11.292,2.995,12.79-2.745,12.915-4.679c0.124-1.935-2.746-3.744-0.938-8.642
					C49.451,36.951,49.66,34.599,49.166,32.365z M33.973,25.454c1.604,0,2.901,1.299,2.901,2.901c0,1.603-1.298,2.901-2.901,2.901
					c-1.602,0-2.901-1.299-2.901-2.901S32.371,25.454,33.973,25.454z M28.265,39.055c-1.551,0-2.808-1.298-2.808-2.901
					s1.257-2.901,2.808-2.901s2.809,1.298,2.809,2.901S29.815,39.055,28.265,39.055z M42.801,50.534
					c-1.688,0-3.057-1.334-3.057-2.979c0-1.644,1.368-2.979,3.057-2.979c1.689,0,3.058,1.334,3.058,2.979
					C45.858,49.2,44.49,50.534,42.801,50.534z"/>
				<path fill="#FFFFFF" d="M41.803,33.315l2.433,2.558c0,0,5.803-4.804,10.481-10.543c4.679-5.739,6.924-9.982-2.621-2.434
					C52.097,22.896,46.108,28.386,41.803,33.315z"/>
				<path fill="#FFFFFF" d="M33.942,45.168c0,0-1.185-7.112,4.556-7.611L41.242,34l2.37,2.371l-3.743,2.87
					c0,0,0.375,2.434-2.059,3.118C35.377,43.048,34.815,43.607,33.942,45.168z"/>
			</g>
		</g>
		<g>
			<path fill="#666666" d="M93.821,39.727H86.8l-1.615,4.461h-1.361L89.7,28.191h1.241l5.833,15.997h-1.361L93.821,39.727z
				 M87.218,38.55h6.174l-3.032-8.481h-0.064L87.218,38.55z"/>
			<path fill="#666666" d="M104.368,33.431l-0.935-0.066c-0.828,0-1.507,0.233-2.038,0.698c-0.53,0.465-0.91,1.104-1.137,1.917
				v8.208H98.94V32.299h1.154l0.165,1.978v0.132c0.344-0.732,0.806-1.304,1.384-1.714c0.578-0.41,1.268-0.615,2.065-0.615
				c0.161,0,0.314,0.013,0.461,0.039c0.146,0.025,0.267,0.053,0.363,0.082L104.368,33.431z"/>
			<path fill="#666666" d="M108.861,29.256v3.043h2.615v1.077h-2.615v7.745c0,0.775,0.142,1.328,0.424,1.652
				c0.281,0.326,0.656,0.49,1.126,0.49c0.16,0,0.316-0.01,0.467-0.027c0.149-0.02,0.328-0.051,0.533-0.094l0.197,0.978
				c-0.176,0.088-0.394,0.159-0.653,0.215c-0.261,0.056-0.52,0.082-0.775,0.082c-0.835,0-1.485-0.265-1.95-0.791
				s-0.698-1.362-0.698-2.505v-7.745h-2.055v-1.077h2.055v-3.043H108.861z"/>
		</g>
	</g>
</g>
<g id="Layer_2" display="none">
	
		<line display="inline" fill="none" stroke="#000000" stroke-width="0.5" stroke-miterlimit="10" x1="1353.545" y1="6114.398" x2="1503.56" y2="6068.574"/>
	
		<line display="inline" fill="none" stroke="#000000" stroke-width="0.5" stroke-miterlimit="10" x1="1503.56" y1="6068.574" x2="1653.573" y2="6022.75"/>
	
		<line display="inline" fill="none" stroke="#000000" stroke-width="0.5" stroke-miterlimit="10" x1="1730.24" y1="6068.574" x2="1880.256" y2="6114.398"/>
	
		<line display="inline" fill="none" stroke="#000000" stroke-width="0.5" stroke-miterlimit="10" x1="1580.227" y1="6022.75" x2="1730.24" y2="6068.574"/>
</g>
</svg>
