<?xml version="1.0" encoding="utf-8"?>
<!-- Generator: Adobe Illustrator 15.1.0, SVG Export Plug-In . SVG Version: 6.00 Build 0)  -->
<!DOCTYPE svg PUBLIC "-//W3C//DTD SVG 1.1//EN" "http://www.w3.org/Graphics/SVG/1.1/DTD/svg11.dtd">
<svg version="1.1" id="Layer_1" xmlns="http://www.w3.org/2000/svg" xmlns:xlink="http://www.w3.org/1999/xlink" x="0px" y="0px"
	 width="556px" height="77px" viewBox="0 0 556 77" enable-background="new 0 0 556 77" xml:space="preserve">
<g id="Layer_1_1_">
	<g>
		<rect x="2" y="2" opacity="0.16" enable-background="new    " width="554" height="75"/>
		<rect x="0" fill="#FFFFFF" width="554" height="74"/>
	</g>
	<g>
		<defs>
			<filter id="Adobe_OpacityMaskFilter" filterUnits="userSpaceOnUse" x="6.68" y="2.209" width="63.8" height="66.092">
				<feColorMatrix  type="matrix" values="1 0 0 0 0  0 1 0 0 0  0 0 1 0 0  0 0 0 1 0"/>
			</filter>
		</defs>
		<mask maskUnits="userSpaceOnUse" x="6.68" y="2.209" width="63.8" height="66.092" id="zvEaJT_75_">
			<g filter="url(#Adobe_OpacityMaskFilter)">
				<circle fill="#FFFFFF" cx="39.833" cy="36.112" r="23.733"/>
			</g>
		</mask>
		<g id="zvEaJT_59_" mask="url(#zvEaJT_75_)">
			<rect x="6.68" y="2.209" fill="#603813" width="63.8" height="66.092"/>
			<g>
				<g>
					<path fill="#FFFFFF" d="M24.378,33.964c0,0-0.336,1.565,1.119,1.902c1.455,0.335,3.469,0.783,6.153,0.335
						c2.687-0.447,5.148,0,5.819,0.224c0.671,0.225,2.239,0.336,2.239,0.336s0.671,0.112,0.783-1.007
						c0.111-1.119-0.448-18.353-2.909-21.485c0,0-5.036,0.671-7.387,3.244C27.847,20.087,24.713,25.682,24.378,33.964z"/>
					<path fill="#603813" d="M39.76,37.014l-0.091-0.006c-0.042-0.002-1.583-0.114-2.277-0.346
						c-0.484-0.162-1.778-0.402-3.353-0.402c-0.809,0-1.599,0.063-2.348,0.188c-0.763,0.127-1.531,0.191-2.286,0.191l0,0
						c-1.665,0-2.994-0.307-3.965-0.53c-1.34-0.31-1.44-1.573-1.307-2.198c0.394-9.827,4.6-15.166,5.879-16.567
						c2.383-2.611,7.328-3.296,7.537-3.324l0.142-0.019l0.088,0.112c2.548,3.243,3.083,20.457,2.962,21.665
						C40.627,36.925,39.961,37.014,39.76,37.014z M34.039,35.76c1.634,0,2.995,0.256,3.511,0.429
						c0.634,0.211,2.282,0.322,2.297,0.323L40,36.765v-0.25c0,0,0.313-0.294,0.363-0.785c0.115-1.149-0.491-17.832-2.831-21.191
						c-0.833,0.134-5.079,0.907-7.12,3.144c-1.251,1.369-5.376,6.592-5.77,16.292c-0.034,0.178-0.256,1.308,0.917,1.579
						C26.508,35.771,27.802,36,29.41,36h-0.001c0.726,0,1.466,0.008,2.202-0.115C32.387,35.755,33.204,35.76,34.039,35.76z"/>
				</g>
				<g>
					<path fill="#FFFFFF" d="M42.544,36.425c0,0,0.373,0.522,1.193,0.225c0.82-0.299,4.478-1.418,6.342-0.373
						c1.864,1.044,2.76-0.149,2.76-0.149s1.865-0.374,2.238-0.746s0.299-0.896,0.299-1.417c0-0.522-0.373-8.43-4.85-15.07
						c0,0-2.983-4.477-9.475-4.775C41.052,14.118,44.26,27.846,42.544,36.425z"/>
					<path fill="#603813" d="M43.256,36.991c-0.608,0-0.903-0.403-0.916-0.421l-0.063-0.088l0.021-0.106
						c1.686-8.427-1.458-22.064-1.491-22.201l-0.075-0.322l0.331,0.015c6.541,0.301,9.642,4.84,9.671,4.886
						c4.682,6.944,4.892,15.129,4.892,15.209l0.003,0.218c0.009,0.46,0.02,0.981-0.375,1.375c-0.378,0.378-1.825,0.703-2.282,0.798
						c-0.168,0.179-0.649,0.599-1.458,0.599c-0.488,0-1.012-0.155-1.558-0.46c-0.479-0.269-1.14-0.405-1.959-0.405
						c-1.967,0-4.085,0.762-4.175,0.794C43.628,36.955,43.437,36.991,43.256,36.991z M42.814,36.345
						c0.121,0.097,0.447,0.212,0.838,0.069c0.094-0.033,2.292-0.825,4.346-0.825c0.906,0,1.648,0.158,2.204,0.469
						c0.47,0.263,0.911,0.396,1.312,0.396c0.758,0,1.121-0.473,1.125-0.478l0.058-0.076l0.094-0.019
						c0.744-0.149,1.89-0.458,2.109-0.678c0.244-0.244,0.237-0.599,0.229-1.011l-0.003-0.229c0-0.078-0.207-8.106-4.808-14.931
						c-0.028-0.043-2.896-4.226-8.95-4.646C41.834,16.513,44.322,28.541,42.814,36.345z"/>
				</g>
				<g>
					<path fill="#FFFFFF" d="M28.519,42.842c0.299-2.521,0.599-4.648,0.799-6.008c-1.646-0.011-2.96-0.311-3.921-0.532
						c-0.413-0.096-0.712-0.275-0.937-0.495c-0.284,2.669-0.63,8.655,1.225,13.375c2.461,6.269,4.774,9.998,6.416,8.729
						c0,0,0.597-0.671-0.97-2.462C29.563,53.658,27.996,47.243,28.519,42.842z"/>
					<path fill="#603813" d="M31.421,58.408C31.42,58.408,31.42,58.408,31.421,58.408c-1.604,0-3.556-2.988-5.97-9.135
						c-1.832-4.66-1.563-10.454-1.24-13.492l0.054-0.512l0.369,0.36c0.217,0.212,0.485,0.353,0.818,0.43
						c0.941,0.218,2.232,0.516,3.866,0.526l0.288,0.002l-0.042,0.284c-0.197,1.343-0.498,3.474-0.798,6.001
						c-0.511,4.308,1.004,10.646,2.551,12.413c1.664,1.902,1.044,2.707,0.97,2.793C31.996,58.307,31.716,58.408,31.421,58.408z
						 M24.664,36.277c-0.249,2.654-0.501,8.349,1.253,12.813c3.013,7.671,4.741,8.817,5.503,8.817l0,0
						c0.184,0,0.354-0.063,0.523-0.193l0,0c-0.014,0,0.318-0.591-1.002-2.103c-1.61-1.84-3.195-8.379-2.671-12.801
						c0.28-2.362,0.562-4.379,0.759-5.732c-1.558-0.042-2.83-0.336-3.688-0.534C25.091,36.488,24.865,36.398,24.664,36.277z"/>
				</g>
				<g>
					<path fill="#FFFFFF" d="M55.418,35.662c-0.01,0.012-0.015,0.024-0.024,0.035c-0.393,0.392-1.663,0.7-2.324,0.839
						c-0.113,0.113-0.31,0.271-0.578,0.398c0.394,1.854,0.978,5.491,0.722,9.936c-0.373,6.489-2.461,8.877-2.461,8.877
						s-0.97,1.642-0.299,2.014c0.671,0.374,2.088-1.043,2.537-1.715C53.416,55.404,58.137,45.348,55.418,35.662z"/>
					<path fill="#603813" d="M50.707,58.073L50.707,58.073c-0.14,0-0.267-0.032-0.376-0.093c-0.165-0.092-0.279-0.241-0.331-0.435
						c-0.185-0.679,0.462-1.801,0.536-1.926c0.047-0.062,2.064-2.459,2.427-8.765c0.256-4.446-0.339-8.091-0.717-9.869l-0.041-0.193
						l0.178-0.085c0.263-0.125,0.433-0.272,0.511-0.35l0.052-0.052l0.072-0.015c1.13-0.237,1.952-0.525,2.199-0.771l0.304-0.35
						l0.139,0.424c2.875,10.244-2.404,20.502-2.463,20.59C52.874,56.669,51.634,58.073,50.707,58.073z M52.773,37.068
						c0.383,1.862,0.939,5.459,0.688,9.816c-0.374,6.501-2.436,8.927-2.523,9.027c-0.212,0.368-0.555,1.146-0.457,1.504
						c0.021,0.08,0.062,0.11,0.092,0.127c0.037,0.021,0.08,0.03,0.134,0.03c0.549,0,1.636-1.01,2.073-1.666
						c0.665-0.999,4.871-10.731,2.491-19.829c-0.534,0.312-1.378,0.538-2.082,0.688C53.101,36.848,52.961,36.96,52.773,37.068z"/>
				</g>
				<g>
					<path fill="#FFFFFF" d="M25.267,49.346c-0.214-0.546-0.397-1.107-0.558-1.679l-1.711,4.127c0,0-1.642,3.506,0,2.834
						c0.662-0.271,2.325-0.565,4.209-0.831C26.625,52.615,25.982,51.166,25.267,49.346z"/>
					<path fill="#603813" d="M22.64,54.963L22.64,54.963c-0.214,0-0.392-0.093-0.499-0.262c-0.417-0.655,0.377-2.473,0.631-3.014
						l1.983-4.783L24.95,47.6c0.166,0.592,0.351,1.148,0.55,1.655c0.667,1.699,1.299,3.149,1.931,4.433l0.153,0.31l-0.342,0.049
						c-2.153,0.304-3.589,0.585-4.149,0.813C22.921,54.93,22.773,54.963,22.64,54.963z M24.671,48.411l-1.442,3.479
						c-0.468,1-0.853,2.25-0.666,2.543c0.017,0.025,0.035,0.088,0.34-0.037c0.576-0.234,1.897-0.504,3.93-0.797
						c-0.588-1.219-1.179-2.584-1.798-4.162C24.907,49.113,24.786,48.771,24.671,48.411z"/>
				</g>
				<g>
					<path fill="#FFFFFF" d="M36.065,52.212c-4.469-3.733-5.849-11.985-6.233-15.36l-0.028-0.239L29.761,36.9
						c-0.198,1.338-0.498,3.464-0.797,5.995c-0.386,3.25,0.439,7.812,1.526,10.488c1.726-0.195,3.277-0.341,4.071-0.396
						c0.453-0.03,1.314-0.043,2.401-0.039C36.673,52.715,36.374,52.47,36.065,52.212z"/>
					<path fill="#603813" d="M30.329,53.652l-0.071-0.176c-1.051-2.592-1.949-7.19-1.542-10.612
						c0.299-2.529,0.599-4.659,0.798-6.002l0.042-0.286l0.496,0.007l0.028,0.24c0.382,3.345,1.745,11.52,6.146,15.196
						c0.308,0.256,0.605,0.5,0.895,0.731l0.558,0.447l-0.994-0.003c-1.014,0-1.722,0.014-2.104,0.041
						c-0.733,0.051-2.273,0.193-4.062,0.395L30.329,53.652z M29.791,38.445c-0.172,1.227-0.375,2.76-0.579,4.478
						c-0.388,3.265,0.441,7.629,1.438,10.19c1.826-0.204,3.231-0.329,3.895-0.375c0.337-0.023,0.913-0.036,1.715-0.04
						c-0.117-0.097-0.235-0.194-0.354-0.294C31.958,49.105,30.389,42.382,29.791,38.445z"/>
				</g>
				<g>
					<path fill="#FFFFFF" d="M51.979,36.683l0.074,0.346c0.099,0.467,0.213,1.069,0.322,1.776c-0.384,2.397-0.356,4.708-0.356,4.708
						s0.331,0.711,0.805,1.736c-0.008,0.52-0.026,1.05-0.058,1.594c-0.177,3.068-0.747,5.195-1.287,6.577
						c-0.678-0.048-1.311-0.092-1.771-0.136c-0.52-0.049-2.118-0.115-4.103-0.176c0.543-0.693,1.105-1.517,1.722-2.496
						c2.699-4.299,3.992-10.238,4.522-13.396l0.084-0.5L51.979,36.683z"/>
					<path fill="#603813" d="M51.645,53.684l-0.301-0.021c-0.636-0.045-1.225-0.086-1.661-0.128
						c-0.486-0.046-2.013-0.111-4.086-0.176l-0.494-0.015l0.306-0.39c0.513-0.654,1.07-1.464,1.705-2.475
						c2.679-4.265,3.963-10.166,4.488-13.306l0.102-0.599l0.393-0.294l0.128,0.347l0.074,0.346c0.119,0.562,0.228,1.165,0.325,1.791
						l0.006,0.039l-0.006,0.038c-0.345,2.15-0.392,4.257-0.392,4.613L53,45.197v0.057c0,0.521,0.01,1.057-0.021,1.604
						c-0.147,2.582-0.568,4.82-1.286,6.654L51.645,53.684z M46.098,52.875c1.857,0.061,3.168,0.117,3.631,0.162
						c0.418,0.04,0.978,0.08,1.582,0.122c0.658-1.752,1.063-3.88,1.205-6.329c0.029-0.52,0.048-1.029,0.055-1.525l-0.803-1.789
						c0-0.022-0.022-2.334,0.354-4.711c-0.046-0.294-0.096-0.584-0.146-0.865c-0.596,3.293-1.898,8.764-4.438,12.808
						C47.013,51.582,46.539,52.282,46.098,52.875z"/>
				</g>
				<g>
					<path fill="#FFFFFF" d="M55.425,50.938c-0.293,1.043-0.604,1.971-0.896,2.754c0.428,0.057,0.759,0.119,0.921,0.191
						c0.672,0.299,1.565,0.67,0.521-1.717C55.824,51.827,55.635,51.402,55.425,50.938z"/>
					<path fill="#603813" d="M56.147,54.352L56.147,54.352c-0.237,0-0.502-0.108-0.798-0.24c-0.088-0.038-0.306-0.101-0.852-0.172
						l-0.312-0.043l0.109-0.293c0.324-0.869,0.623-1.789,0.889-2.734l0.188-0.664l0.281,0.629c0.21,0.468,0.399,0.893,0.55,1.23
						c0.615,1.41,0.547,1.832,0.397,2.061C56.532,54.229,56.399,54.352,56.147,54.352z M54.871,53.486
						c0.325,0.053,0.546,0.106,0.682,0.168c0.176,0.078,0.444,0.197,0.595,0.197c0.029,0,0.04-0.006,0.04-0.006
						c0-0.004,0.147-0.229-0.443-1.58c-0.079-0.18-0.17-0.385-0.27-0.606C55.287,52.285,55.084,52.896,54.871,53.486z"/>
				</g>
				<g>
					<g>
						<path fill="#FFFFFF" d="M38.359,46.814c0.128,0.514,0.19,0.763,1.904,0.432c1.871-0.357,2.714-0.393,3.47-0.141
							c0.633,0.211,1.011,0.19,1.094,0.084c0.025-0.03,0.13-0.228-0.311-0.949l-0.937-1.538c-0.445,0.437-1.154,0.696-2.144,0.75
							c-0.085,0.005-0.167,0.007-0.248,0.007c-0.604,0-1.104-0.129-1.498-0.381l0.08,0.104
							C39.035,45.752,38.292,46.544,38.359,46.814z"/>
						<path fill="#603813" d="M39.09,47.646L39.09,47.646c-0.78,0-0.883-0.41-0.974-0.771c-0.148-0.594,1.333-1.762,1.501-1.894
							l0.047,0.062l0.162-0.176c0.399,0.257,0.932,0.373,1.596,0.334c0.906-0.05,1.573-0.277,1.981-0.679l0.226-0.222l1.1,1.808
							c0.375,0.617,0.471,1.021,0.289,1.24c-0.173,0.223-0.686,0.219-1.364-0.008c-0.745-0.248-1.458-0.212-3.344,0.15
							C39.765,47.598,39.377,47.646,39.09,47.646z M39.841,45.443c-0.731,0.582-1.218,1.175-1.236,1.338
							c0.08,0.306,0.096,0.365,0.485,0.365l0,0c0.251,0,0.619-0.049,1.125-0.146c1.993-0.383,2.766-0.409,3.597-0.133
							c0.477,0.158,0.7,0.154,0.787,0.146c-0.017-0.092-0.079-0.289-0.296-0.645l-0.785-1.289c-0.495,0.365-1.188,0.572-2.067,0.62
							C40.822,45.734,40.286,45.648,39.841,45.443z"/>
					</g>
					<g>
						<path fill="#FFFFFF" d="M37.935,13.992c2.572,3.272,3.125,20.591,3.003,21.807c-0.099,0.986-0.592,1.283-0.917,1.373
							c-0.117,0.449-0.395,0.906-0.705,1.328l-0.128,4.422c-0.003,0.029-0.102,0.946,0.461,1.546
							c0.375,0.399,0.971,0.579,1.765,0.537c0.985-0.053,1.655-0.305,1.992-0.75c0.395-0.519,0.239-1.211,0.188-1.438
							c-0.132-0.596-0.419-3.172-0.274-4.643c-0.138-0.354-0.21-0.699-0.232-1.012c-0.572-0.07-0.873-0.43-0.906-0.477l-0.113-0.158
							l0.039-0.189c1.677-8.384-1.457-21.98-1.488-22.117l-0.136-0.576l0.587,0.026c-1.532-2.301-2.877-0.765-3.45,0.142
							l0.159-0.021L37.935,13.992z"/>
						<path fill="#603813" d="M41.193,45.261L41.193,45.261c-0.758,0-1.339-0.209-1.727-0.622c-0.644-0.685-0.533-1.703-0.528-1.746
							l0.129-4.479l0.046-0.063c0.354-0.482,0.572-0.889,0.665-1.242l0.036-0.14l0.14-0.039c0.417-0.116,0.671-0.516,0.734-1.158
							c0.118-1.176-0.478-18.479-2.951-21.627l-0.068-0.089l-0.549,0.074l0.286-0.453c0.424-0.668,1.113-1.464,2.002-1.464
							c0.657,0,1.286,0.443,1.868,1.317l0.273,0.41l-0.75-0.033l0.06,0.254c0.032,0.136,3.191,13.719,1.491,22.223l-0.017,0.084
							l0.049,0.069c0.001,0.002,0.241,0.313,0.733,0.374l0.203,0.024l0.017,0.205c0.022,0.315,0.097,0.632,0.217,0.939l0.022,0.056
							l-0.007,0.06c-0.145,1.474,0.149,4.023,0.271,4.562c0.057,0.257,0.229,1.035-0.233,1.646c-0.384,0.507-1.117,0.791-2.179,0.85
							C41.346,45.259,41.269,45.261,41.193,45.261z M39.563,38.584l-0.126,4.346c-0.002,0.028-0.09,0.852,0.395,1.366
							c0.29,0.308,0.748,0.464,1.361,0.464c0.077,0.006,0.137-0.001,0.207-0.005c0.908-0.049,1.518-0.269,1.808-0.651
							c0.322-0.426,0.188-1.033,0.144-1.232c-0.123-0.553-0.422-3.129-0.285-4.662c-0.102-0.273-0.172-0.554-0.208-0.835
							c-0.584-0.139-0.866-0.524-0.88-0.542l-0.177-0.248l0.061-0.297c1.652-8.263-1.456-21.874-1.486-22.009l-0.21-0.898
							l0.391,0.018c-0.383-0.454-0.767-0.683-1.146-0.683c-0.573,0-1.076,0.524-1.398,0.966l0.123,0.157
							c2.61,3.321,3.178,20.764,3.055,21.985c-0.101,1.015-0.599,1.398-0.962,1.544C40.107,37.732,39.889,38.132,39.563,38.584z"/>
					</g>
					<g>
						<path fill="#FFFFFF" d="M49.952,36.712c-0.303,0.772-0.794,1.759-1.59,2.697c-1.642,1.938-3.356,1.118-4.55-0.372
							c-0.034-0.042-0.055-0.085-0.085-0.128c-0.019,1.393,0.189,3.296,0.305,3.81c0.056,0.252,0.211,0.975-0.15,1.617l1.018,1.671
							c0.27,0.441,0.591,1.071,0.278,1.462c-0.307,0.387-1.031,0.246-1.584,0.062c-0.589-0.197-1.252-0.227-3.244,0.156
							c-0.533,0.103-0.94,0.15-1.257,0.15c-0.823,0-1.021-0.33-1.162-0.896c-0.169-0.676,1.052-1.707,1.511-2.067
							c-0.04-0.036-0.085-0.063-0.121-0.103c-0.705-0.754-0.584-1.836-0.578-1.883l0.109-3.801
							c-0.118,0.141-0.231,0.273-0.335,0.396c-0.82,0.971-2.76,2.014-4.625,0.82c-1.138-0.729-1.689-2.453-1.95-3.688
							c-0.069,0.011-0.145,0.015-0.214,0.027c-0.483,0.08-0.968,0.127-1.451,0.157c0.354,3.097,1.691,11.402,6.077,15.067
							c5.446,4.551,6.938,4.326,10.595-1.492c2.705-4.311,3.979-10.374,4.46-13.233C50.943,37.124,50.455,36.979,49.952,36.712z"/>
						<path fill="#603813" d="M41.939,55.287L41.939,55.287c-1.569,0-3.362-1.235-5.747-3.229
							c-4.413-3.688-5.781-11.879-6.166-15.229l-0.029-0.262l0.263-0.017c0.534-0.033,1-0.084,1.425-0.154
							c0.041-0.007,0.086-0.012,0.132-0.017l0.319-0.047l0.049,0.232c0.26,1.239,0.791,2.857,1.84,3.529
							c0.514,0.329,1.064,0.495,1.638,0.495c1.176,0,2.169-0.682,2.663-1.266l0.797-0.946l-0.13,4.519
							c-0.007,0.063-0.112,1.039,0.511,1.705l0.327,0.285l-0.234,0.184c-0.938,0.736-1.509,1.465-1.422,1.811
							c0.122,0.493,0.246,0.708,0.919,0.708c0.3,0,0.695-0.048,1.21-0.146c1.875-0.361,2.596-0.407,3.37-0.148
							c0.654,0.218,1.146,0.227,1.31,0.021c0.238-0.299-0.164-0.959-0.296-1.176l-1.094-1.797l0.072-0.128
							c0.316-0.563,0.172-1.224,0.124-1.44c-0.117-0.524-0.33-2.438-0.311-3.865l0.01-0.761l0.487,0.686
							c0.765,0.963,1.583,1.466,2.338,1.466c0.646,0,1.271-0.354,1.859-1.049c0.641-0.757,1.161-1.641,1.547-2.627l0.103-0.261
							l0.248,0.132c0.471,0.25,0.925,0.385,1.349,0.402l0.284,0.011l-0.048,0.28c-0.527,3.143-1.812,9.053-4.494,13.324
							C45.211,53.607,43.802,55.287,41.939,55.287z M30.554,37.032c0.416,3.437,1.792,11.163,5.958,14.644
							c2.299,1.922,4.008,3.111,5.427,3.111c1.623,0,2.987-1.666,4.795-4.544c2.562-4.08,3.833-9.711,4.38-12.875
							c-0.335-0.046-0.681-0.15-1.032-0.312c-0.395,0.937-0.907,1.782-1.528,2.516c-0.689,0.812-1.443,1.226-2.241,1.226
							c-0.946,0-1.747-0.575-2.328-1.183c0.039,1.227,0.194,2.617,0.291,3.05c0.055,0.248,0.213,0.969-0.107,1.661l0.944,1.552
							c0.196,0.322,0.717,1.177,0.261,1.748c-0.314,0.396-0.951,0.444-1.859,0.142c-0.684-0.228-1.368-0.17-3.117,0.166
							c-0.546,0.104-0.973,0.155-1.305,0.155c-0.945,0-1.238-0.416-1.404-1.088c-0.168-0.672,0.607-1.506,1.375-2.144
							c-0.686-0.809-0.584-1.875-0.569-1.998l0.088-3.072c-0.597,0.629-1.666,1.303-2.919,1.303c-0.67,0-1.312-0.193-1.906-0.574
							c-1.129-0.722-1.713-2.323-2.011-3.621C31.379,36.953,30.988,36.999,30.554,37.032z"/>
					</g>
				</g>
			</g>
		</g>
		<g>
			<path fill="#666666" d="M85.449,43.991V27.995h4.669c1.661,0,2.958,0.35,3.889,1.049s1.396,1.752,1.396,3.158
				c0,0.799-0.225,1.498-0.676,2.099c-0.45,0.601-1.057,1.025-1.817,1.274c1.011,0.125,1.837,0.564,2.478,1.318
				s0.961,1.637,0.961,2.647c0,1.429-0.463,2.526-1.39,3.296c-0.928,0.77-2.167,1.154-3.72,1.154L85.449,43.991L85.449,43.991z
				 M86.768,35.169h3.845c1.106-0.022,1.962-0.288,2.565-0.797c0.604-0.509,0.906-1.247,0.906-2.214
				c0-1.011-0.337-1.771-1.012-2.279c-0.674-0.508-1.658-0.764-2.954-0.764h-3.352L86.768,35.169L86.768,35.169z M86.768,36.278
				v6.603h4.471c1.18,0,2.106-0.291,2.78-0.873c0.674-0.583,1.011-1.396,1.011-2.443c0-0.96-0.332-1.738-0.993-2.335
				c-0.663-0.597-1.552-0.914-2.665-0.95h-0.177L86.768,36.278L86.768,36.278z"/>
			<path fill="#666666" d="M104.444,33.235l-0.934-0.066c-0.828,0-1.507,0.233-2.038,0.698c-0.531,0.465-0.91,1.104-1.137,1.917
				v8.207h-1.318V32.104h1.154l0.165,1.978v0.132c0.344-0.732,0.806-1.304,1.384-1.714s1.267-0.615,2.065-0.615
				c0.16,0,0.314,0.013,0.461,0.039c0.146,0.026,0.267,0.053,0.362,0.083L104.444,33.235z"/>
			<path fill="#666666" d="M108.169,28.698h-1.309v-1.846h1.309V28.698z M108.169,43.991h-1.309V32.104h1.309V43.991z"/>
			<path fill="#666666" d="M113.859,29.061v3.043h2.615v1.077h-2.615v7.746c0,0.776,0.142,1.327,0.424,1.653
				c0.281,0.326,0.656,0.488,1.126,0.488c0.16,0,0.316-0.008,0.467-0.026c0.149-0.019,0.328-0.049,0.533-0.093l0.197,0.978
				c-0.176,0.089-0.394,0.159-0.653,0.214c-0.261,0.055-0.52,0.084-0.775,0.084c-0.835,0-1.485-0.265-1.95-0.791
				c-0.465-0.527-0.698-1.363-0.698-2.506V33.18h-2.055v-1.077h2.055V29.06L113.859,29.061L113.859,29.061z"/>
			<path fill="#666666" d="M120.518,28.698h-1.308v-1.846h1.308V28.698z M120.518,43.991h-1.308V32.104h1.308V43.991z"/>
			<path fill="#666666" d="M131.273,40.947c0-0.557-0.229-1.042-0.687-1.456s-1.284-0.752-2.479-1.016
				c-1.405-0.293-2.452-0.694-3.137-1.203c-0.685-0.509-1.027-1.221-1.027-2.137c0-0.908,0.383-1.677,1.148-2.307
				c0.765-0.63,1.778-0.945,3.038-0.945c1.326,0,2.384,0.335,3.175,1.005c0.791,0.67,1.168,1.496,1.132,2.477l-0.021,0.066h-1.22
				c0-0.652-0.279-1.22-0.841-1.703c-0.56-0.483-1.302-0.725-2.225-0.725c-0.952,0-1.67,0.208-2.153,0.626
				c-0.482,0.417-0.725,0.904-0.725,1.461c0,0.542,0.207,0.991,0.621,1.346s1.239,0.668,2.478,0.939
				c1.393,0.308,2.444,0.736,3.159,1.285c0.714,0.55,1.071,1.289,1.071,2.22c0,0.988-0.401,1.792-1.203,2.411
				s-1.862,0.93-3.182,0.93c-1.442,0-2.575-0.346-3.399-1.033c-0.824-0.688-1.214-1.51-1.17-2.461l0.021-0.065h1.208
				c0.052,0.856,0.401,1.479,1.05,1.866c0.647,0.39,1.411,0.584,2.29,0.584c0.952,0,1.703-0.213,2.253-0.637
				C130.998,42.05,131.273,41.541,131.273,40.947z"/>
			<path fill="#666666" d="M136.931,34.125c0.403-0.71,0.932-1.262,1.587-1.653c0.656-0.392,1.423-0.588,2.302-0.588
				c1.252,0,2.215,0.388,2.885,1.165c0.67,0.776,1.005,1.981,1.005,3.615v7.328h-1.318v-7.35c0-1.289-0.254-2.213-0.764-2.774
				c-0.509-0.56-1.21-0.84-2.104-0.84c-0.923,0-1.683,0.225-2.278,0.676c-0.598,0.45-1.035,1.053-1.313,1.807v8.481h-1.318v-17.14
				h1.318V34.125z"/>
			<path fill="#666666" d="M161.606,42.079h0.066l5.955-14.084h1.604v15.996h-1.317V30.555l-0.066-0.011l-5.735,13.447h-0.944
				L155.3,30.214l-0.066,0.011v13.766h-1.317V27.995h1.758L161.606,42.079z"/>
			<path fill="#666666" d="M180.789,42.057c-0.381,0.696-0.893,1.23-1.533,1.604c-0.642,0.374-1.4,0.562-2.279,0.562
				c-1.253,0-2.233-0.426-2.943-1.274c-0.712-0.851-1.066-2.168-1.066-3.955v-6.889h1.318v6.91c0,1.45,0.246,2.49,0.741,3.12
				c0.494,0.63,1.195,0.945,2.104,0.945c0.989,0,1.778-0.222,2.368-0.665s1.005-1.049,1.247-1.818v-8.492h1.317v11.887h-1.165
				L180.789,42.057z"/>
			<path fill="#666666" d="M192.654,40.947c0-0.557-0.229-1.042-0.687-1.456s-1.284-0.752-2.479-1.016
				c-1.405-0.293-2.451-0.694-3.137-1.203c-0.685-0.509-1.026-1.221-1.026-2.137c0-0.908,0.382-1.677,1.147-2.307
				c0.765-0.63,1.778-0.945,3.038-0.945c1.326,0,2.384,0.335,3.175,1.005c0.791,0.67,1.168,1.496,1.132,2.477l-0.021,0.066h-1.219
				c0-0.652-0.28-1.22-0.842-1.703c-0.56-0.483-1.302-0.725-2.225-0.725c-0.952,0-1.67,0.208-2.153,0.626
				c-0.482,0.417-0.725,0.904-0.725,1.461c0,0.542,0.207,0.991,0.621,1.346s1.24,0.668,2.478,0.939
				c1.393,0.308,2.444,0.736,3.159,1.285c0.714,0.55,1.071,1.289,1.071,2.22c0,0.988-0.401,1.792-1.203,2.411
				s-1.862,0.93-3.181,0.93c-1.443,0-2.576-0.346-3.4-1.033c-0.824-0.688-1.214-1.51-1.17-2.461l0.021-0.065h1.208
				c0.052,0.856,0.401,1.479,1.05,1.866c0.647,0.39,1.412,0.584,2.291,0.584c0.951,0,1.702-0.213,2.252-0.637
				C192.379,42.05,192.654,41.541,192.654,40.947z"/>
			<path fill="#666666" d="M201.509,44.223c-1.538,0-2.787-0.545-3.746-1.633c-0.959-1.087-1.438-2.484-1.438-4.191v-0.604
				c0-1.714,0.484-3.127,1.455-4.241c0.971-1.113,2.174-1.67,3.609-1.67c1.443,0,2.558,0.463,3.345,1.39
				c0.788,0.927,1.182,2.174,1.182,3.741v1.021h-8.273v0.362c0,1.355,0.343,2.479,1.027,3.374c0.685,0.894,1.632,1.34,2.84,1.34
				c0.726,0,1.392-0.119,2-0.357c0.607-0.238,1.113-0.559,1.516-0.961l0.562,0.9c-0.417,0.439-0.965,0.805-1.644,1.094
				C203.265,44.077,202.454,44.223,201.509,44.223z M201.388,33.004c-1.011,0-1.842,0.363-2.494,1.087
				c-0.651,0.726-1.033,1.645-1.143,2.758l0.033,0.066h6.812V36.64c0-1.055-0.276-1.924-0.83-2.609
				C203.214,33.347,202.421,33.004,201.388,33.004z"/>
			<path fill="#666666" d="M216.351,42.057c-0.381,0.696-0.892,1.23-1.533,1.604c-0.641,0.374-1.399,0.562-2.278,0.562
				c-1.253,0-2.234-0.426-2.944-1.274c-0.711-0.851-1.066-2.168-1.066-3.955v-6.889h1.318v6.91c0,1.45,0.247,2.49,0.742,3.12
				c0.494,0.63,1.195,0.945,2.104,0.945c0.989,0,1.778-0.222,2.368-0.665s1.005-1.049,1.247-1.818v-8.492h1.318v11.887h-1.165
				L216.351,42.057z"/>
			<path fill="#666666" d="M222.218,32.104l0.121,1.956c0.38-0.688,0.888-1.223,1.521-1.604c0.634-0.381,1.387-0.571,2.259-0.571
				c0.907,0,1.666,0.218,2.273,0.654c0.608,0.436,1.043,1.1,1.308,1.994c0.358-0.827,0.869-1.476,1.532-1.944
				c0.663-0.469,1.463-0.703,2.401-0.703c1.267,0,2.247,0.421,2.938,1.264c0.692,0.842,1.038,2.146,1.038,3.911v6.932h-1.317v-6.955
				c0-1.465-0.26-2.499-0.78-3.104c-0.52-0.604-1.238-0.906-2.153-0.906c-1.003,0-1.779,0.306-2.329,0.917
				c-0.549,0.611-0.896,1.401-1.043,2.368c0,0.08,0.001,0.161,0.006,0.241c0.003,0.081,0.005,0.184,0.005,0.308v7.13h-1.329v-6.955
				c0-1.436-0.262-2.462-0.786-3.082c-0.524-0.619-1.244-0.928-2.159-0.928c-0.923,0-1.657,0.232-2.203,0.698
				c-0.545,0.465-0.928,1.093-1.147,1.884v8.382h-1.318V32.104H222.218z"/>
		</g>
	</g>
</g>
<g id="Layer_2" display="none">
	
		<line display="inline" fill="none" stroke="#000000" stroke-width="0.5" stroke-miterlimit="10" x1="1353.545" y1="6375.398" x2="1503.56" y2="6329.574"/>
	
		<line display="inline" fill="none" stroke="#000000" stroke-width="0.5" stroke-miterlimit="10" x1="1503.56" y1="6329.574" x2="1653.573" y2="6283.75"/>
	
		<line display="inline" fill="none" stroke="#000000" stroke-width="0.5" stroke-miterlimit="10" x1="1730.24" y1="6329.574" x2="1880.256" y2="6375.398"/>
	
		<line display="inline" fill="none" stroke="#000000" stroke-width="0.5" stroke-miterlimit="10" x1="1580.227" y1="6283.75" x2="1730.24" y2="6329.574"/>
</g>
</svg>
