<?xml version="1.0" encoding="utf-8"?>
<!-- Generator: Adobe Illustrator 15.1.0, SVG Export Plug-In . SVG Version: 6.00 Build 0)  -->
<!DOCTYPE svg PUBLIC "-//W3C//DTD SVG 1.1//EN" "http://www.w3.org/Graphics/SVG/1.1/DTD/svg11.dtd">
<svg version="1.1" id="Layer_1" xmlns="http://www.w3.org/2000/svg" xmlns:xlink="http://www.w3.org/1999/xlink" x="0px" y="0px"
	 width="556px" height="77px" viewBox="0 0 556 77" enable-background="new 0 0 556 77" xml:space="preserve">
<g id="Layer_1_1_">
	<g>
		<rect x="2" y="2" opacity="0.16" enable-background="new    " width="554" height="75"/>
		<rect x="0" fill="#FFFFFF" width="554" height="74"/>
	</g>
	<g>
		<defs>
			<filter id="Adobe_OpacityMaskFilter" filterUnits="userSpaceOnUse" x="8.11" y="5" width="63.763" height="67.773">
				<feColorMatrix  type="matrix" values="1 0 0 0 0  0 1 0 0 0  0 0 1 0 0  0 0 0 1 0"/>
			</filter>
		</defs>
		<mask maskUnits="userSpaceOnUse" x="8.11" y="5" width="63.763" height="67.773" id="zvEaJT_80_">
			<g filter="url(#Adobe_OpacityMaskFilter)">
				<circle fill="#FFFFFF" cx="39.833" cy="36.521" r="23.733"/>
			</g>
		</mask>
		<g id="zvEaJT_50_" mask="url(#zvEaJT_80_)">
			<rect x="8.11" y="5" fill="#F15A24" width="63.763" height="62.018"/>
			<g id="Ix1G8B_2_">
				<g>
					<path fill="#FFFFFF" d="M34.077,15.005c0.131-0.025,0.145,0.052,0.152,0.133c-0.089,0.432,0.105,0.619,0.154,0.932
						c0.071,0.584,0.586,0.278,0.615,0.666c0.102,0.709-0.285,0.995-0.615,1.331c0.529,0.966,0.084,2.049-0.308,2.928
						c-0.021,0.462,0.778,0.213,0.769,0.666c-0.047,0.484,0.024,0.866,0.154,1.198c-0.202,0.358-0.679,0.478-0.923,0.799
						c-0.103,0.41,0.257,0.766,0.308,1.198c0.122,1.039-0.423,1.827-0.308,3.062c0.081,0.874,0.425,1.707,0.614,2.529
						c0.195,0.841,0.129,1.704,0.615,2.396c0.891-0.145,1.793,0.245,2.308,0c0.39-0.774-1.129-0.948-1.229-1.73
						c1.103,0.204,1.643,1.441,2.923,1.065c0.328-0.604,0.357-1.466,0.462-2.263c0.551,0.385,0.311,1.527,0.461,2.263
						c1.531,0.551,1.923-0.866,3.077-1.065c-0.316,0.701-1.13,0.975-1.385,1.73c0.698,0.365,1.548-0.125,2.308-0.133
						c-0.384,0.555-1.461,0.511-1.846,1.066c0.129,0.686,1.592,0.218,2.154,0.532c-0.52,0.394-1.875,0.064-2.309,0.532
						c0.266,0.865-0.206,1.657,0.309,2.396c-0.239,0.598-0.452,0.794-0.309,1.331c0.203,0.758,1.142,1.085,1.848,1.464
						c0.381,0.957,0.519,2.125,1.385,2.662c0.581,0.015,0.827-0.26,0.923-0.666c0.392-0.15,0.75-0.327,1.077-0.533
						c0.741,0.248,1.354,0.714,2,1.064c0.675,0.367,1.434,0.605,1.846,1.198c-0.216,0.656-0.698,1.083-0.615,1.997
						c-1.312,1.35-3.603,1.854-3.385,4.525c-0.155,0.266-0.572,0.304-0.769,0.531c0.12,3.226,0.522,6.205,0.461,9.584
						c0.135,0.429-0.399,0.276-0.461,0.533c0.002,1.732,0.05,3.504-0.154,5.059c0.926,0.466,2.366,0.266,3.692,0.266
						c1.363,0,2.773,0,4,0c0.062,0.566-0.149,1.371,0.152,1.73c0.648,0.283,1.875,0.063,2.771,0.133c0,1.553,0,3.105,0,4.658
						c-10.667,0-21.333,0-32,0c0-1.553,0-3.105,0-4.658c0.872,0,1.744,0,2.615,0c0.484-0.29,0.261-1.194,0.308-1.863
						c1.194-0.077,2.75,0.161,3.692-0.133c0.211-0.839,0.725-1.415,0.77-2.396c0.002-0.396,0.4-0.453,0.461-0.799
						c-0.769-1.682,0.56-3.953,0.154-5.724c0.537-0.529,0.493-1.493,0.615-2.662c0.069-0.67,0.228-1.267,0.153-1.863
						c-0.068-0.556-0.54-0.938-0.462-1.729c0.062-0.629,0.636-0.911,0.615-1.465c-0.013-0.742-1.042-0.606-1.23-1.197
						c-0.098-1.86,1.409-2.332,1.386-4.126c-0.203-0.535-0.688-0.825-0.924-1.332c-0.004-0.802-0.048-1.64,0.154-2.263
						c-0.006-0.482-0.634-0.429-0.769-0.799c0-0.267,0-0.533,0-0.799c-0.424-0.75-1.242-1.349-0.77-2.529
						c0.027-0.069,0.29-0.217,0.309-0.267c0.162-0.465,0.249-1.218,0.769-1.464c-0.625-1.618-0.079-3.676-0.308-5.458
						c-0.032-0.248-0.229-0.256-0.309-0.532c-0.06-0.208,0.055-0.454,0-0.666c-0.034-0.134-0.275-0.36-0.308-0.532
						c-0.045-0.25,0.203-0.406,0.154-0.533c-0.176-0.453-0.707-0.692-0.771-1.065c0.022-0.999,0.136-1.331,0-2.263
						c-0.26-0.44-0.635-0.833-0.461-1.864c0.097-0.449,0.522-0.613,1.077-0.666c-0.315-1.001,0.167-1.82,0.462-2.662
						c-0.358-0.908-0.694-2.135,0-2.928C32.981,15.258,33.761,15.774,34.077,15.005z M34.077,17.001
						c0.042-0.181-0.097-0.519-0.154-0.266C33.881,16.916,34.019,17.255,34.077,17.001z M35.308,34.172
						c0.707-0.053,1.618,0.069,1.692-0.533c-0.34-0.415-1.143-0.432-1.692-0.665C35.005,33.252,35.19,33.858,35.308,34.172z
						 M36.077,34.573c-0.08,0.251,0.029,1.477,0.614,1.596c0.488-0.212,0.326-1.191,0.154-1.596
						C36.355,34.65,36.37,34.323,36.077,34.573z"/>
				</g>
			</g>
		</g>
		<g>
			<path fill="#666666" d="M96.468,39.4l0.022,0.065c0.028,1.567-0.483,2.82-1.538,3.759c-1.056,0.938-2.439,1.405-4.153,1.405
				c-1.779,0-3.215-0.644-4.307-1.928c-1.092-1.286-1.638-2.95-1.638-4.994v-2.604c0-2.036,0.545-3.7,1.638-4.993
				c1.092-1.293,2.526-1.939,4.307-1.939c1.736,0,3.126,0.458,4.169,1.374c1.044,0.916,1.551,2.175,1.522,3.779l-0.022,0.066h-1.23
				c0-1.289-0.394-2.294-1.181-3.016c-0.788-0.722-1.873-1.082-3.258-1.082c-1.399,0-2.521,0.542-3.367,1.626
				s-1.269,2.472-1.269,4.164v2.625c0,1.714,0.423,3.11,1.269,4.19c0.846,1.082,1.968,1.621,3.367,1.621
				c1.385,0,2.47-0.352,3.258-1.055c0.787-0.703,1.181-1.725,1.181-3.064H96.468L96.468,39.4z"/>
			<path fill="#666666" d="M101.039,29.107h-1.309v-1.846h1.309V29.107z M101.039,44.4h-1.309V32.513h1.309V44.4z"/>
			<path fill="#666666" d="M106.729,29.47v3.043h2.615v1.077h-2.615v7.746c0,0.775,0.142,1.327,0.423,1.653
				c0.282,0.325,0.657,0.489,1.126,0.489c0.161,0,0.317-0.01,0.468-0.027c0.149-0.018,0.327-0.049,0.532-0.094l0.198,0.979
				c-0.176,0.088-0.394,0.159-0.654,0.214c-0.26,0.056-0.519,0.083-0.774,0.083c-0.835,0-1.485-0.264-1.95-0.791
				s-0.698-1.361-0.698-2.505v-7.746h-2.055v-1.077h2.055V29.47H106.729z"/>
			<path fill="#666666" d="M115.288,41.182l0.418,1.416h0.064l3.593-10.084h1.473l-5.164,13.788
				c-0.309,0.807-0.707,1.49-1.197,2.055c-0.491,0.563-1.209,0.846-2.153,0.846c-0.153,0-0.341-0.018-0.561-0.051
				c-0.22-0.032-0.381-0.066-0.483-0.104l0.154-1.099c0.088,0.015,0.229,0.03,0.423,0.05c0.194,0.018,0.335,0.027,0.423,0.027
				c0.571,0,1.029-0.203,1.373-0.61c0.345-0.406,0.638-0.929,0.879-1.565l0.626-1.604l-4.592-11.733h1.461L115.288,41.182z"/>
			<path fill="#666666" d="M130.021,43.29h8.263v1.11h-9.58V28.404h1.317V43.29L130.021,43.29z"/>
			<path fill="#666666" d="M148.313,44.4c-0.081-0.418-0.141-0.776-0.182-1.077c-0.04-0.3-0.062-0.608-0.062-0.923
				c-0.409,0.645-0.984,1.178-1.725,1.599s-1.589,0.632-2.549,0.632c-1.165,0-2.067-0.311-2.708-0.929
				c-0.642-0.619-0.961-1.459-0.961-2.521c0-1.062,0.465-1.923,1.395-2.583c0.931-0.66,2.14-0.989,3.626-0.989h2.922v-1.472
				c0-0.85-0.269-1.516-0.807-2c-0.539-0.483-1.298-0.725-2.28-0.725c-0.9,0-1.628,0.22-2.181,0.659
				c-0.553,0.438-0.83,0.993-0.83,1.659h-1.219l-0.022-0.065c-0.044-0.894,0.339-1.679,1.148-2.357
				c0.809-0.677,1.866-1.016,3.169-1.016s2.351,0.333,3.142,1c0.791,0.666,1.188,1.622,1.188,2.867v5.845
				c0,0.417,0.023,0.824,0.07,1.22c0.049,0.396,0.127,0.787,0.236,1.176H148.313z M143.94,43.466c1.012,0,1.887-0.239,2.626-0.719
				c0.74-0.479,1.241-1.097,1.505-1.851v-2.274h-2.933c-1.069,0-1.952,0.255-2.647,0.764c-0.696,0.509-1.044,1.122-1.044,1.841
				c0,0.674,0.223,1.215,0.665,1.625C142.555,43.261,143.164,43.466,143.94,43.466z"/>
			<path fill="#666666" d="M154.938,29.47v3.043h2.615v1.077h-2.615v7.746c0,0.775,0.142,1.327,0.423,1.653
				c0.282,0.325,0.657,0.489,1.126,0.489c0.161,0,0.317-0.01,0.468-0.027c0.149-0.018,0.328-0.049,0.532-0.094l0.198,0.979
				c-0.176,0.088-0.394,0.159-0.654,0.214c-0.26,0.056-0.519,0.083-0.774,0.083c-0.835,0-1.485-0.264-1.95-0.791
				s-0.698-1.361-0.698-2.505v-7.746h-2.055v-1.077h2.055V29.47H154.938z"/>
			<path fill="#666666" d="M161.596,29.107h-1.308v-1.846h1.308V29.107z M161.596,44.4h-1.308V32.513h1.308V44.4z"/>
			<path fill="#666666" d="M167.286,29.47v3.043h2.614v1.077h-2.614v7.746c0,0.775,0.141,1.327,0.423,1.653
				c0.282,0.325,0.657,0.489,1.126,0.489c0.161,0,0.316-0.01,0.467-0.027s0.328-0.049,0.533-0.094l0.198,0.979
				c-0.177,0.088-0.395,0.159-0.654,0.214c-0.26,0.056-0.52,0.083-0.775,0.083c-0.835,0-1.484-0.264-1.95-0.791
				c-0.465-0.527-0.697-1.361-0.697-2.505v-7.746h-2.056v-1.077h2.056V29.47H167.286z"/>
			<path fill="#666666" d="M180.25,42.466c-0.381,0.696-0.893,1.229-1.533,1.604c-0.641,0.373-1.4,0.561-2.279,0.561
				c-1.253,0-2.233-0.425-2.943-1.273c-0.711-0.851-1.066-2.168-1.066-3.955v-6.889h1.318v6.91c0,1.45,0.247,2.49,0.741,3.12
				s1.195,0.945,2.104,0.945c0.989,0,1.778-0.223,2.368-0.665c0.59-0.443,1.005-1.05,1.247-1.818v-8.492h1.317V44.4h-1.165
				L180.25,42.466z"/>
			<path fill="#666666" d="M184.48,38.555c0-1.897,0.401-3.415,1.203-4.554s1.921-1.708,3.356-1.708
				c0.812,0,1.524,0.172,2.137,0.517c0.612,0.344,1.119,0.831,1.521,1.461v-7.009h1.318V44.4h-1.077l-0.187-1.726
				c-0.403,0.63-0.916,1.113-1.538,1.45s-1.355,0.506-2.197,0.506c-1.421,0-2.532-0.529-3.334-1.588s-1.203-2.479-1.203-4.257
				V38.555z M185.799,38.786c0,1.437,0.287,2.578,0.862,3.428c0.574,0.851,1.44,1.274,2.598,1.274c0.85,0,1.556-0.188,2.121-0.566
				c0.562-0.377,1.003-0.898,1.317-1.566V35.72c-0.301-0.674-0.726-1.223-1.273-1.647c-0.55-0.425-1.264-0.637-2.144-0.637
				c-1.156,0-2.026,0.475-2.608,1.423c-0.582,0.948-0.873,2.181-0.873,3.697V38.786z"/>
			<path fill="#666666" d="M202.036,44.631c-1.538,0-2.787-0.544-3.746-1.632c-0.959-1.087-1.439-2.483-1.439-4.191v-0.604
				c0-1.714,0.485-3.127,1.456-4.241c0.97-1.113,2.173-1.67,3.609-1.67c1.442,0,2.558,0.463,3.345,1.39
				c0.788,0.927,1.181,2.174,1.181,3.741v1.021h-8.272v0.362c0,1.355,0.343,2.479,1.026,3.373c0.686,0.895,1.633,1.34,2.841,1.34
				c0.726,0,1.392-0.119,2-0.356c0.606-0.238,1.112-0.56,1.516-0.961l0.561,0.901c-0.417,0.438-0.965,0.804-1.643,1.092
				C203.792,44.486,202.981,44.631,202.036,44.631z M201.916,33.414c-1.012,0-1.842,0.363-2.494,1.087
				c-0.652,0.726-1.033,1.645-1.144,2.758l0.033,0.066h6.812V37.05c0-1.055-0.276-1.924-0.83-2.609
				C203.741,33.756,202.948,33.414,201.916,33.414z"/>
			<path fill="#666666" d="M216.219,41.355c0-0.557-0.229-1.041-0.687-1.455c-0.458-0.414-1.284-0.752-2.479-1.017
				c-1.406-0.293-2.452-0.694-3.137-1.203c-0.686-0.509-1.027-1.221-1.027-2.137c0-0.908,0.382-1.677,1.148-2.307
				c0.765-0.63,1.777-0.945,3.038-0.945c1.325,0,2.384,0.335,3.175,1.005s1.168,1.496,1.132,2.477l-0.022,0.066h-1.219
				c0-0.652-0.28-1.22-0.841-1.703c-0.56-0.483-1.302-0.725-2.225-0.725c-0.952,0-1.671,0.208-2.153,0.626
				c-0.483,0.417-0.726,0.904-0.726,1.461c0,0.542,0.207,0.991,0.621,1.346s1.24,0.668,2.479,0.939
				c1.392,0.308,2.444,0.736,3.159,1.284c0.714,0.551,1.07,1.289,1.07,2.221c0,0.988-0.4,1.792-1.202,2.411
				c-0.803,0.618-1.862,0.929-3.182,0.929c-1.442,0-2.576-0.345-3.399-1.033c-0.824-0.688-1.215-1.509-1.171-2.461l0.022-0.064
				h1.208c0.051,0.855,0.401,1.479,1.049,1.867c0.648,0.389,1.412,0.582,2.291,0.582c0.952,0,1.703-0.211,2.252-0.637
				C215.944,42.459,216.219,41.95,216.219,41.355z"/>
		</g>
	</g>
</g>
<g id="Layer_2" display="none">
	
		<line display="inline" fill="none" stroke="#000000" stroke-width="0.5" stroke-miterlimit="10" x1="1353.545" y1="5853.398" x2="1503.56" y2="5807.574"/>
	
		<line display="inline" fill="none" stroke="#000000" stroke-width="0.5" stroke-miterlimit="10" x1="1503.56" y1="5807.574" x2="1653.573" y2="5761.75"/>
	
		<line display="inline" fill="none" stroke="#000000" stroke-width="0.5" stroke-miterlimit="10" x1="1730.24" y1="5807.574" x2="1880.256" y2="5853.398"/>
	
		<line display="inline" fill="none" stroke="#000000" stroke-width="0.5" stroke-miterlimit="10" x1="1580.227" y1="5761.75" x2="1730.24" y2="5807.574"/>
</g>
</svg>
