<?xml version="1.0" encoding="utf-8"?>
<!-- Generator: Adobe Illustrator 15.1.0, SVG Export Plug-In . SVG Version: 6.00 Build 0)  -->
<!DOCTYPE svg PUBLIC "-//W3C//DTD SVG 1.1//EN" "http://www.w3.org/Graphics/SVG/1.1/DTD/svg11.dtd">
<svg version="1.1" id="Layer_1" xmlns="http://www.w3.org/2000/svg" xmlns:xlink="http://www.w3.org/1999/xlink" x="0px" y="0px"
	 width="556px" height="77px" viewBox="0 0 556 77" enable-background="new 0 0 556 77" xml:space="preserve">
<g id="Layer_1_1_">
	<g>
		<rect x="2" y="2" opacity="0.16" enable-background="new    " width="554" height="75"/>
		<rect x="0" fill="#FFFFFF" width="554" height="74"/>
	</g>
	<g>
		<defs>
			<filter id="Adobe_OpacityMaskFilter" filterUnits="userSpaceOnUse" x="6.68" y="7.057" width="63.8" height="57.621">
				<feColorMatrix  type="matrix" values="1 0 0 0 0  0 1 0 0 0  0 0 1 0 0  0 0 0 1 0"/>
			</filter>
		</defs>
		<mask maskUnits="userSpaceOnUse" x="6.68" y="7.057" width="63.8" height="57.621" id="zvEaJT_76_">
			<g filter="url(#Adobe_OpacityMaskFilter)">
				<circle fill="#FFFFFF" cx="39.833" cy="36.21" r="23.733"/>
			</g>
		</mask>
		<g id="zvEaJT_54_" mask="url(#zvEaJT_76_)">
			<rect x="6.68" y="7.458" fill="#79BF0C" width="63.8" height="57.22"/>
			<g>
				<g enable-background="new    ">
					
						<text transform="matrix(0.7954 0.606 -0.606 0.7954 17.7615 36.8369)" fill="#FFFFFF" font-family="'FontAwesome'" font-size="37.4351"></text>
				</g>
			</g>
		</g>
		<g>
			<path fill="#666666" d="M88.24,39.496l0.493,2.582H88.8l0.56-2.582L92.7,28.092h1.329l3.352,11.404l0.538,2.593h0.065
				l0.527-2.593l2.823-11.404h1.428l-4.098,15.996h-1.252l-3.615-12.272l-0.396-1.725h-0.065l-0.374,1.725l-3.659,12.272h-1.252
				l-4.098-15.996h1.428L88.24,39.496z"/>
			<path fill="#666666" d="M109.234,44.318c-1.538,0-2.787-0.543-3.746-1.631s-1.438-2.484-1.438-4.191v-0.604
				c0-1.714,0.485-3.127,1.456-4.241c0.97-1.113,2.173-1.67,3.608-1.67c1.443,0,2.559,0.463,3.346,1.39
				c0.788,0.927,1.181,2.174,1.181,3.741v1.021h-8.272v0.362c0,1.354,0.343,2.479,1.026,3.373c0.686,0.894,1.632,1.34,2.84,1.34
				c0.727,0,1.393-0.119,2-0.356c0.607-0.238,1.113-0.56,1.517-0.961l0.561,0.9c-0.417,0.439-0.965,0.805-1.643,1.093
				C110.991,44.174,110.18,44.318,109.234,44.318z M109.114,33.102c-1.011,0-1.842,0.363-2.493,1.087
				c-0.652,0.726-1.033,1.645-1.144,2.758l0.033,0.066h6.812v-0.275c0-1.055-0.275-1.924-0.829-2.609S110.146,33.102,109.114,33.102
				z"/>
			<path fill="#666666" d="M123.418,41.045c0-0.557-0.229-1.042-0.688-1.456s-1.284-0.752-2.478-1.016
				c-1.406-0.293-2.452-0.694-3.137-1.203c-0.686-0.509-1.027-1.221-1.027-2.137c0-0.908,0.382-1.677,1.147-2.307
				c0.766-0.63,1.778-0.945,3.038-0.945c1.326,0,2.385,0.335,3.176,1.005c0.791,0.67,1.168,1.496,1.132,2.477l-0.022,0.066h-1.219
				c0-0.652-0.28-1.22-0.841-1.703c-0.561-0.483-1.302-0.725-2.226-0.725c-0.951,0-1.67,0.208-2.152,0.626
				c-0.483,0.417-0.726,0.904-0.726,1.461c0,0.542,0.207,0.991,0.621,1.346s1.24,0.668,2.479,0.939
				c1.392,0.308,2.443,0.736,3.158,1.285c0.715,0.551,1.071,1.289,1.071,2.221c0,0.987-0.4,1.791-1.203,2.41
				c-0.802,0.619-1.861,0.93-3.181,0.93c-1.443,0-2.576-0.346-3.4-1.033c-0.823-0.688-1.214-1.51-1.17-2.461l0.022-0.065h1.208
				c0.051,0.856,0.4,1.479,1.049,1.867c0.648,0.39,1.412,0.583,2.291,0.583c0.952,0,1.703-0.212,2.252-0.637
				C123.143,42.146,123.418,41.639,123.418,41.045z"/>
			<path fill="#666666" d="M129.812,29.158v3.043h2.615v1.077h-2.615v7.746c0,0.776,0.142,1.328,0.423,1.653
				c0.282,0.326,0.657,0.489,1.126,0.489c0.161,0,0.317-0.009,0.468-0.027c0.149-0.018,0.327-0.049,0.532-0.093l0.198,0.978
				c-0.176,0.088-0.394,0.16-0.654,0.215c-0.26,0.055-0.519,0.082-0.774,0.082c-0.835,0-1.485-0.264-1.95-0.79
				c-0.465-0.527-0.698-1.362-0.698-2.505v-7.747h-2.055v-1.077h2.055v-3.043L129.812,29.158L129.812,29.158z"/>
			<path fill="#666666" d="M139.513,44.318c-1.538,0-2.787-0.543-3.746-1.631s-1.438-2.484-1.438-4.191v-0.604
				c0-1.714,0.484-3.127,1.456-4.241c0.97-1.113,2.173-1.67,3.608-1.67c1.443,0,2.559,0.463,3.345,1.39
				c0.788,0.927,1.182,2.174,1.182,3.741v1.021h-8.273v0.362c0,1.354,0.343,2.479,1.027,3.373s1.632,1.34,2.84,1.34
				c0.726,0,1.392-0.119,2-0.356c0.607-0.238,1.113-0.56,1.516-0.961l0.562,0.9c-0.417,0.439-0.965,0.805-1.644,1.093
				C141.269,44.174,140.458,44.318,139.513,44.318z M139.392,33.102c-1.011,0-1.842,0.363-2.494,1.087
				c-0.651,0.726-1.033,1.645-1.143,2.758l0.033,0.066h6.812v-0.275c0-1.055-0.275-1.924-0.83-2.609
				C141.218,33.444,140.425,33.102,139.392,33.102z"/>
			<path fill="#666666" d="M152.004,33.333l-0.935-0.066c-0.827,0-1.507,0.233-2.037,0.698c-0.531,0.465-0.91,1.104-1.138,1.917
				v8.207h-1.317V32.201h1.153l0.165,1.978v0.132c0.345-0.732,0.807-1.304,1.384-1.714c0.578-0.41,1.268-0.615,2.065-0.615
				c0.161,0,0.315,0.013,0.461,0.039c0.146,0.026,0.268,0.053,0.363,0.083L152.004,33.333z"/>
			<path fill="#666666" d="M155.421,32.201l0.121,2.065c0.388-0.725,0.903-1.287,1.549-1.687c0.645-0.399,1.41-0.599,2.296-0.599
				c1.289,0,2.271,0.394,2.944,1.181s1.011,2.016,1.011,3.686v7.24h-1.318v-7.229c0-1.362-0.254-2.325-0.763-2.89
				c-0.509-0.562-1.232-0.846-2.17-0.846c-0.938,0-1.694,0.23-2.27,0.692c-0.574,0.461-0.99,1.08-1.246,1.856v8.416h-1.318V32.201
				H155.421z"/>
			<path fill="#666666" d="M173.878,42.979h8.262v1.11h-9.58V28.092h1.318V42.979L173.878,42.979z"/>
			<path fill="#666666" d="M186.117,28.795h-1.309V26.95h1.309V28.795z M186.117,44.088h-1.309V32.201h1.309V44.088z"/>
			<path fill="#666666" d="M191.808,29.158v3.043h2.615v1.077h-2.615v7.746c0,0.776,0.142,1.328,0.423,1.653
				c0.282,0.326,0.657,0.489,1.126,0.489c0.161,0,0.317-0.009,0.468-0.027c0.149-0.018,0.327-0.049,0.532-0.093l0.198,0.978
				c-0.176,0.088-0.394,0.16-0.654,0.215c-0.26,0.055-0.519,0.082-0.774,0.082c-0.835,0-1.485-0.264-1.95-0.79
				c-0.465-0.527-0.698-1.362-0.698-2.505v-7.747h-2.055v-1.077h2.055v-3.043L191.808,29.158L191.808,29.158z"/>
			<path fill="#666666" d="M201.509,44.318c-1.538,0-2.787-0.543-3.746-1.631s-1.438-2.484-1.438-4.191v-0.604
				c0-1.714,0.484-3.127,1.455-4.241c0.971-1.113,2.174-1.67,3.609-1.67c1.443,0,2.558,0.463,3.345,1.39
				c0.788,0.927,1.182,2.174,1.182,3.741v1.021h-8.273v0.362c0,1.354,0.343,2.479,1.027,3.373s1.632,1.34,2.84,1.34
				c0.726,0,1.392-0.119,2-0.356c0.607-0.238,1.113-0.56,1.516-0.961l0.562,0.9c-0.417,0.439-0.965,0.805-1.644,1.093
				C203.265,44.174,202.454,44.318,201.509,44.318z M201.388,33.102c-1.011,0-1.842,0.363-2.494,1.087
				c-0.651,0.726-1.033,1.645-1.143,2.758l0.033,0.066h6.812v-0.275c0-1.055-0.276-1.924-0.83-2.609
				C203.214,33.444,202.421,33.102,201.388,33.102z"/>
			<path fill="#666666" d="M214,33.333l-0.935-0.066c-0.828,0-1.507,0.233-2.038,0.698c-0.53,0.465-0.909,1.104-1.137,1.917v8.207
				h-1.317V32.201h1.153l0.165,1.978v0.132c0.344-0.732,0.807-1.304,1.384-1.714c0.578-0.41,1.268-0.615,2.065-0.615
				c0.161,0,0.315,0.013,0.461,0.039c0.146,0.026,0.267,0.053,0.363,0.083L214,33.333z"/>
			<path fill="#666666" d="M223.778,44.088c-0.081-0.417-0.141-0.775-0.182-1.077c-0.04-0.3-0.061-0.608-0.061-0.923
				c-0.41,0.645-0.985,1.178-1.726,1.6c-0.74,0.42-1.589,0.631-2.549,0.631c-1.165,0-2.067-0.31-2.708-0.928
				c-0.641-0.619-0.961-1.459-0.961-2.521s0.465-1.922,1.395-2.582c0.931-0.66,2.14-0.989,3.626-0.989h2.923v-1.472
				c0-0.85-0.27-1.516-0.808-2c-0.539-0.483-1.298-0.725-2.28-0.725c-0.9,0-1.628,0.22-2.181,0.659
				c-0.553,0.439-0.83,0.993-0.83,1.659h-1.219l-0.022-0.065c-0.044-0.894,0.34-1.679,1.148-2.357
				c0.809-0.677,1.866-1.016,3.169-1.016s2.351,0.333,3.142,1c0.791,0.666,1.188,1.622,1.188,2.867v5.845
				c0,0.416,0.024,0.824,0.071,1.22c0.048,0.396,0.126,0.787,0.235,1.175H223.778z M219.405,43.154c1.012,0,1.887-0.239,2.626-0.719
				c0.74-0.48,1.241-1.098,1.506-1.852V38.31h-2.934c-1.068,0-1.952,0.255-2.647,0.764c-0.696,0.509-1.043,1.121-1.043,1.84
				c0,0.674,0.222,1.216,0.665,1.626C218.02,42.949,218.629,43.154,219.405,43.154z"/>
			<path fill="#666666" d="M230.402,29.158v3.043h2.615v1.077h-2.615v7.746c0,0.776,0.142,1.328,0.424,1.653
				c0.281,0.326,0.656,0.489,1.126,0.489c0.16,0,0.316-0.009,0.467-0.027c0.149-0.018,0.328-0.049,0.533-0.093l0.197,0.978
				c-0.176,0.088-0.394,0.16-0.653,0.215c-0.261,0.055-0.52,0.082-0.775,0.082c-0.835,0-1.485-0.264-1.95-0.79
				c-0.465-0.527-0.698-1.362-0.698-2.505v-7.747h-2.055v-1.077h2.055v-3.043L230.402,29.158L230.402,29.158z"/>
			<path fill="#666666" d="M243.367,42.155c-0.382,0.696-0.893,1.229-1.533,1.604c-0.642,0.374-1.4,0.562-2.279,0.562
				c-1.253,0-2.234-0.426-2.944-1.274c-0.711-0.851-1.065-2.168-1.065-3.955v-6.889h1.317v6.909c0,1.451,0.247,2.49,0.742,3.121
				c0.494,0.629,1.195,0.944,2.104,0.944c0.988,0,1.777-0.222,2.368-0.665c0.59-0.443,1.005-1.049,1.247-1.818v-8.491h1.317v11.887
				h-1.165L243.367,42.155z"/>
			<path fill="#666666" d="M253.54,33.333l-0.935-0.066c-0.828,0-1.507,0.233-2.038,0.698c-0.53,0.465-0.909,1.104-1.137,1.917
				v8.207h-1.318V32.201h1.154l0.165,1.978v0.132c0.344-0.732,0.806-1.304,1.384-1.714c0.578-0.41,1.268-0.615,2.065-0.615
				c0.161,0,0.314,0.013,0.461,0.039c0.146,0.026,0.267,0.053,0.363,0.083L253.54,33.333z"/>
			<path fill="#666666" d="M260.099,44.318c-1.538,0-2.787-0.543-3.746-1.631s-1.438-2.484-1.438-4.191v-0.604
				c0-1.714,0.484-3.127,1.456-4.241c0.97-1.113,2.173-1.67,3.608-1.67c1.443,0,2.559,0.463,3.346,1.39
				c0.787,0.927,1.181,2.174,1.181,3.741v1.021h-8.273v0.362c0,1.354,0.344,2.479,1.027,3.373c0.685,0.894,1.632,1.34,2.84,1.34
				c0.727,0,1.393-0.119,2-0.356c0.607-0.238,1.113-0.56,1.516-0.961l0.562,0.9c-0.417,0.439-0.965,0.805-1.643,1.093
				C261.855,44.174,261.044,44.318,260.099,44.318z M259.978,33.102c-1.011,0-1.842,0.363-2.494,1.087
				c-0.651,0.726-1.032,1.645-1.143,2.758l0.033,0.066h6.812v-0.275c0-1.055-0.275-1.924-0.83-2.609
				C261.804,33.444,261.011,33.102,259.978,33.102z"/>
		</g>
	</g>
</g>
<g id="Layer_2" display="none">
	
		<line display="inline" fill="none" stroke="#000000" stroke-width="0.5" stroke-miterlimit="10" x1="1353.545" y1="6201.398" x2="1503.56" y2="6155.574"/>
	
		<line display="inline" fill="none" stroke="#000000" stroke-width="0.5" stroke-miterlimit="10" x1="1503.56" y1="6155.574" x2="1653.573" y2="6109.75"/>
	
		<line display="inline" fill="none" stroke="#000000" stroke-width="0.5" stroke-miterlimit="10" x1="1730.24" y1="6155.574" x2="1880.256" y2="6201.398"/>
	
		<line display="inline" fill="none" stroke="#000000" stroke-width="0.5" stroke-miterlimit="10" x1="1580.227" y1="6109.75" x2="1730.24" y2="6155.574"/>
</g>
</svg>
