<?xml version="1.0" encoding="utf-8"?>
<!-- Generator: Adobe Illustrator 15.1.0, SVG Export Plug-In . SVG Version: 6.00 Build 0)  -->
<!DOCTYPE svg PUBLIC "-//W3C//DTD SVG 1.1//EN" "http://www.w3.org/Graphics/SVG/1.1/DTD/svg11.dtd">
<svg version="1.1" id="Layer_1" xmlns="http://www.w3.org/2000/svg" xmlns:xlink="http://www.w3.org/1999/xlink" x="0px" y="0px"
	 width="556px" height="77px" viewBox="0 0 556 77" enable-background="new 0 0 556 77" xml:space="preserve">
<g id="Layer_1_1_">
	<g>
		<rect x="2" y="2" opacity="0.16" enable-background="new    " width="554" height="75"/>
		<rect x="0" fill="#FFFFFF" width="554" height="74"/>
	</g>
	<g>
		<defs>
			<filter id="Adobe_OpacityMaskFilter" filterUnits="userSpaceOnUse" x="8.11" y="4.982" width="71.893" height="62.018">
				<feColorMatrix  type="matrix" values="1 0 0 0 0  0 1 0 0 0  0 0 1 0 0  0 0 0 1 0"/>
			</filter>
		</defs>
		<mask maskUnits="userSpaceOnUse" x="8.11" y="4.982" width="71.893" height="62.018" id="zvEaJT_79_">
			<g filter="url(#Adobe_OpacityMaskFilter)">
				<circle fill="#FFFFFF" cx="39.833" cy="36.503" r="23.733"/>
			</g>
		</mask>
		<g id="zvEaJT_51_" mask="url(#zvEaJT_79_)">
			<rect x="8.11" y="4.982" fill="#0071BC" width="63.763" height="62.018"/>
			<g id="Yb1KDc_7_" opacity="0.66">
				<g>
					<g>
						<path fill="#FFFFFF" d="M22.087,5.215c-0.039,0.815,0.372,1.183,0.622,1.71c0.241,0.103,0.222-0.021,0.544,0
							c0.576,0.512,0.699,1.478,1.244,2.021c-0.257,0.252-0.499-0.17-0.777-0.156c0.132,0.49,0.666,0.578,0.855,1.011
							c0.079,0.52-0.316,1.185,0.154,1.399c0.954-1.282,2.521,0.236,1.632,1.555c-0.236-0.057-0.229,0.134-0.466,0.078
							c-0.146,0.121,0.111,0.303-0.078,0.466c-0.296-0.038-0.496,0.022-0.622,0.156c0.466,0.269-0.167,0.325-0.077,0.854
							c0.171,0.391,0.552,0.098,1.011,0.155c-0.198,1.175-1.897,0.85-2.954,1.167c-0.117-0.22-0.479-0.195-0.7-0.311
							c-0.446,0.476-1.67,0.933-2.099,0.311c-0.676,0.049-1.181,0.271-1.166,1.011c-0.562-0.241-1.864-0.2-2.1,0.543
							c-0.656-0.136,0.028-0.528,0.312-0.855c0.638-0.738,0.997-1.866,2.488-1.477c0.479-0.244,0.52-0.93,0.932-1.244
							c-0.613-0.308-0.689,0.541-1.321,0.467c-0.314-0.022-0.336-0.338-0.544-0.467c-0.309-0.05-0.312,0.206-0.622,0.155
							c-0.062-0.145-0.13-0.284-0.155-0.466c-0.367-0.004-0.442,0.284-0.622,0.466c-0.208-0.05-0.295-0.222-0.467-0.31
							c0.382-0.785,1.542-0.791,1.789-1.711c-0.345-0.199,0.02-0.844-0.312-1.166c-0.194,0.064-0.306,0.213-0.544,0.233
							c0.302-1.209,1.971-0.388,2.332-1.166c0.015-0.032-0.184-1.001-0.155-1.166c0.051-0.312,0.321-0.439,0.312-0.855
							c-0.388-0.102-0.331,0.24-0.622,0.234c-0.828-0.178-0.63-1.718,0.154-1.789c-0.426-0.567-1.499,0.046-1.943,0.389
							c-0.247-0.271-0.741-0.354-0.855-0.155c-0.105-0.246,0.25-0.606,0.233-1.011C18.848,5.025,20.614,5.155,22.087,5.215z"/>
						<path fill="#FFFFFF" d="M10.037,12.756c0-0.078,0-0.155,0-0.234c0.927-0.16,1.164-1.012,2.254-1.01
							c-0.176-0.057-0.139-0.327-0.233-0.466c-0.403,0.141-0.523,0.564-1.088,0.544c0.099-0.29,0.383-0.394,0.311-0.855
							c0.189-0.226,0.656-0.172,0.622-0.622c-0.475-0.173-1.239-0.056-1.398-0.544c-0.029-0.521,0.449-0.535,0.622-0.855
							c0.043-0.379-0.488-0.185-0.777-0.232c0.407-0.06,0.293-0.64,0.544-0.855c0.913,0.333,1.873,0.166,2.1-0.777
							c-0.027-0.258-0.448-0.122-0.7-0.155c0.204-0.261,0.459-0.474,0.467-0.933c0.229-0.184,0.661-0.168,0.854-0.389
							c0.174,0.113,0.108,0.463,0.234,0.622c0.381-0.059,0.015-0.865,0.622-0.699c0.042,0.275-0.275,0.191-0.233,0.466
							c0.858-0.409,2.095-0.301,1.866,1.011c0.066,0.227,0.195-0.102,0.39,0c0.111,0.424-0.303,0.398,0,0.854
							c-0.093,0.09-0.275,0.088-0.467,0.078c0,0.129,0,0.259,0,0.388c-0.187,0.099-0.47,0.1-0.622,0.233
							c-0.059,0.447,0.121,0.656,0.312,0.855c0.032,0.369-0.038,0.637-0.155,0.855c0.437,0.984-0.301,1.709-0.233,2.487
							c-1.051-0.236-1.806,0.189-2.177,0.855c-0.244,0.037-0.317-0.096-0.389-0.233c-0.221,0.609-0.897,0.761-1.633,0.855
							c-0.363-0.004,0.091-0.177,0.078-0.311c-0.117-0.18-0.19-0.118-0.39-0.078c0.068-0.137,0.247-0.227,0.078-0.388
							c-0.288-0.009-0.455,0.36-0.699,0.155c-0.233-0.331,0.5-0.245,0.39-0.699C10.44,12.444,10.343,12.899,10.037,12.756z"/>
						<path fill="#FFFFFF" d="M37.09,32.036c0.337,0.727,0.108,1.884-0.156,2.487C36.032,34.1,35.845,32.155,37.09,32.036z"/>
						<path fill="#FFFFFF" d="M80.002,35.845c0,0.415,0,0.83,0,1.244c-0.182,5.571-0.025,11.479-0.077,17.181
							c-1.114,0.051-2.437-0.104-3.421,0.078c-1.969,0-3.938,0-5.907,0c-0.779-0.131-2.1-0.131-2.877,0
							c-3.266,0-8.007,5.678-11.271,5.678C41.75,63.764,35.535,64.261,10.97,54.27c-0.078-0.602-0.399-0.965-0.389-1.478
							c0.015-0.694,0.62-0.985,0.933-1.71c0.381-0.884,0.305-1.487,0.933-1.943c1.057-0.475,2.133-0.576,2.877-1.789
							c0.266-0.432,0.686-2.697,1.243-2.721c0.601-0.025,0.805,1.268,1.633,1.244c0.578-0.121,1.24-0.337,1.865-0.232
							c0.302,0.049,0.473,0.334,0.699,0.389c0.309,0.074,0.61-0.35,0.777,0c0.77-0.139,1.114-0.698,1.555-1.166
							c1.022,0.074,1.648-0.942,2.488-1.243c0.986-0.354,2.081-0.029,3.031-0.623c0.888,0.187,2.39-0.599,3.031,0.233
							c0.521-0.258,1.186-0.371,1.633-0.699c0.307,0.423,1.097,0.249,1.243,0.078c1.465,0.912,2.062-0.563,3.732-0.467
							c0.115,0.274,0.164,0.613,0.311,0.854c0.482,0.31,0.763-0.451,1.088-0.312c0,0.851-1.058,0.7-0.933,1.556
							c0.074,0.507,0.851,0.639,0.933,1.167c0.204,1.311-1.229,1.279-1.398,2.1c-0.066,0.229-0.196-0.102-0.389,0
							c-0.126,1.065,0.865,1.068,1.398,1.087c0.099,0.188,0.101,0.47,0.233,0.623c0.909,0.354,2.668,0.81,4.042,0.699
							c0.451,0.353,1.204,0.403,1.632,0.776c0.174,0.554,0.385,1.068,0.7,1.479c0.761,0.501,1.646,0.168,2.721,0.622
							c0.808,0.342,1.245,1.334,2.099,1.244c0.308-0.033,1.372-0.817,1.556-1.399c0.188-0.602-0.139-1.297,0-2.021
							c0.72-0.899,2.627-1.097,3.81-0.468c-0.069,0.485,0.144,0.688,0.389,0.855c0.85-0.15,1.549,0.247,2.332,0.391
							c0.286-0.028,0.235,0.283,0.312,0.465c1.495,0.164,3.1,0.218,4.042,0.934c0.728-0.08,1.178,0.118,1.555,0.389
							c0.694-0.211,1.155-0.66,1.71-1.011c0.607,0.521,0.967-0.368,1.943-0.155c-0.304,0.649,0.803,0.793,0.7,1.711
							c0.315-0.15,0.085-0.849,0.155-1.244c0.105,0.18,0.278,0.291,0.467,0.388c4.112,0.46,2.8-4.507,4.896-6.062
							c0.037-0.934-0.556-3,0.312-3.732c-0.316-0.627-0.728-0.025-1.088,0.154c-1.09-0.959-1.463,0.223-2.255,0.623
							c-0.396,0.201-1.151,0.429-1.632,0.311c-0.767-0.188-1.643-2.162-2.954-1.322c-0.138,0.147-0.057,0.514-0.078,0.778
							c-0.658,0.554-1.963,0.507-1.943-0.623c-0.423,0.213-0.863-0.411-1.399-0.078c0.038-0.22,0.406-0.11,0.312-0.465
							c-0.423-0.239-0.722,0.241-1.244,0.155c-0.227-0.226,0.211-0.185,0.232-0.389c-0.188-0.371-0.521-0.408-0.155-0.779
							c-0.146-0.15-0.285-0.022-0.466,0c0.519-0.717-0.487-1.07-1.089-1.166c-0.018-0.146,0.088-0.172,0.077-0.311
							c0.044-0.23,0.474,0.51,0.934,0.155c0.208-0.247-0.385-0.19-0.39-0.467c0.565-0.476-0.513-1.09,0.156-1.632
							c-0.296-0.253-0.793,0.175-1.089-0.077c-0.077-1.445,1.437-1.476,2.332-1.322c0.2-0.019-0.106-0.134,0-0.312
							c0.148,0.422,1.148,0.256,1.632,0.234c0.318-0.108-0.075-0.388,0.079-0.467c0.451-0.016,1.013,0.081,1.166-0.233
							c-0.091-0.428-1.164,0.137-1.088-0.622c1.101-0.415,1.92,0.373,2.799,0.155c0.373-0.093,0.374-0.43,0.699-0.7
							c1.176-0.976,2.713-1.147,4.896-1.244c0.003,0.597,0.749,1,1.244,0.623c0.131,1.058,1.652,1.137,2.333,1.243
							c0.401,0.064,0.601,0.315,0.855,0.311C78.504,35.601,79.64,34.652,80.002,35.845z"/>
						<path fill="#FFFFFF" d="M37.323,38.411c-0.661-0.169-0.625,0.36-0.934,0.543c-0.968-0.573-0.187-1.518-0.389-2.332
							c-0.102-0.406-0.437-0.486-0.467-1.011c0.154,0.001,0.099,0.212,0.311,0.155c0.55-0.085,0.555-0.851,1.088-0.777
							C37.879,35.121,37.363,37.594,37.323,38.411z"/>
						<path fill="#FFFFFF" d="M28.461,37.399c0.205,0.027,0.044,0.479,0.467,0.466c-0.035,0.276-0.263,0.36-0.312,0.622
							c-0.29-0.149-0.381-0.5-0.854-0.466C27.843,37.662,28.299,37.679,28.461,37.399z"/>
						<path fill="#FFFFFF" d="M57.847,39.809c0.017,0.529,0.343,0.746,0.622,1.012c-0.38,0.218-0.478-0.432-0.7-0.623
							c-0.697-0.028-0.678-0.772-1.32-0.855C56.98,38.852,57.108,39.999,57.847,39.809z"/>
						<path fill="#FFFFFF" d="M60.412,39.809c0.078,0,0.154,0,0.231,0c-0.002,0.258,0.033,0.551-0.231,0.545
							C60.493,40.133,60.493,40.03,60.412,39.809z"/>
						<path fill="#FFFFFF" d="M45.719,40.432c-0.231,0.668-0.626,1.479-0.466,2.644c-1.491-0.194-1.993-1.377-3.421-1.634
							c-0.139-0.146-0.058-0.514-0.077-0.777C42.704,40.648,44.359,41.188,45.719,40.432z"/>
						<path fill="#FFFFFF" d="M63.522,43.695c0.265,0.322-0.243,0.531-0.389,0.701C62.869,44.076,63.376,43.865,63.522,43.695z"/>
						<path fill="#FFFFFF" d="M72.307,45.018c0.129,0.365-0.712,0.428-0.545,1.088c-0.464,0.348-1.804,0.732-2.254,0.156
							C70.076,45.482,71.637,45.695,72.307,45.018z"/>
						<path fill="#FFFFFF" d="M57.847,45.173c0.096,0.138,0.151,0.315,0.312,0.39c0.255-0.004,0.387-0.131,0.699-0.078
							c0.389,0.232,1.116,0.127,1.399,0.466c0.266-0.062,0.444,0.116,0.078,0.077c-0.701-0.129-0.9,0.24-1.478,0.233
							c-0.128-0.649-0.968-0.587-1.71-0.622C57.05,44.895,57.748,45.456,57.847,45.173z"/>
						<path fill="#FFFFFF" d="M36.469,4.982c0.258,0,0.518,0,0.777,0c-0.18,0.105-0.302,0.731,0.154,0.622
							C37.28,5.715,37.131,5.8,37.09,5.992c0.146,0.228,0.412-0.083,0.7,0.234c-0.011,0.224,0.042,0.509-0.078,0.622
							c0.276,0.4,1.233,0.349,1.633,0.389c-0.058,0.409-0.556,0.376-0.389,1.01c1.218-0.09,2.001-0.804,2.954-1.165
							c0.327,0.008,0.368,0.526,0.699,0.7c0.134,0.068,0.275-0.036,0.39,0.078c0.236,0.236,0.098,0.833,0.776,0.698
							c0.272,0.014,0.245-0.272,0.389-0.388c0.154-0.13,0.099,0.007,0.312,0c0.162-0.097,0.292-0.226,0.39-0.389
							c1.923-0.279,2.564-1.84,4.818-1.789c0.007,0.419,0.078,1.07,0.467,1.322c0.572-0.313,1.9-0.185,1.633-1.555
							c0.877-0.191,1.015-0.149,1.787,0.078c0.199-0.085,0.153-0.417,0.156-0.699C54.81,4.925,56.38,5.2,57.458,4.982
							c7.463,0,14.926,0,22.389,0c0,8.474,0,16.948,0,25.421c-0.796-1.045-2.091-1.589-3.109-2.411c-0.182,0-0.362,0-0.545,0
							c-0.017-0.491-0.663-0.712-0.622-1.01c0.092-0.013,0.065-0.142,0.078-0.233c0.178,0.057,0.396,0.069,0.543,0.156
							c0.626-0.474,0.725-1.765,1.789-1.555c-0.115-0.61-0.951-0.5-1.011-1.166c0.233-0.225,0.673,0.173,0.933-0.078
							c-0.073-0.573,0.929-0.447,1.167-0.933c-0.909-0.84-2.376,0.198-3.265,0.388c-0.154,0.054-0.207,0.207-0.233,0.389
							c-0.793-0.398-1.683,0.625-2.331,0.622c-0.321,0.145-0.444,0.488-0.39,1.011c0.109-0.371-0.838-0.353-0.932-0.778
							c-0.205,0.278-0.341,0.354-0.7,0.155c0.205,0.518,0.503,0.967,1.088,0.7c0.057,0.211-0.154,0.157-0.156,0.311
							c0.245,0.118,0.468,0.259,0.778,0.311c-0.017,0.25,0.137,0.329,0.077,0.622c0.77,0.366,1.087-0.297,2.1-0.233
							c-0.048,0.186-0.111,0.354-0.079,0.621c-0.284-0.025-0.431,0.087-0.622,0.155c-0.296-0.015-0.295-0.326-0.621-0.312
							c-0.493,0.104-0.385,0.809-1.166,0.623c-0.494,0.264-0.717,1.189-1.634,0.776c0.364-1.207-0.426-1.884-1.32-1.788
							c0.437-0.497,0.992-0.873,1.71-1.088c-0.224-0.999-1.121-0.271-1.944-0.39c-0.338-0.048-0.386-0.381-0.777-0.311
							c0.169-0.194,0.473-0.253,0.622-0.466c-0.438-0.855-2.167-0.466-2.486,0.466c-0.238,0.004-0.188-0.28-0.468-0.233
							c-0.214,0.29,0.161,0.529,0.155,0.856c-0.373,0.089-0.817,0.555-1.011,0.155c-0.031,1.104,0.096,2.303-0.934,2.565
							c0.177-0.182,0.271-0.792-0.077-0.855c-0.229,0.743-0.61,1.694-0.467,3.032c-1.122,0.07-0.853,1.531-1.554,2.021
							c0.876,0.626,0.609,2.396,2.176,2.332c0.001,0.666-0.844,0.117-1.477,0.233c-0.583,0.107-1.03,0.653-1.399,0.855
							c-0.313-0.231-0.476-0.073-0.854,0c-0.92-0.838-3.032-0.873-3.811,0.155c-0.038,0.246,0.387,0.029,0.312,0.311
							c-0.189,0.068-0.285,0.232-0.622,0.156c-0.011,0.192,0.041,0.322,0.156,0.388c-0.31-0.055-0.62-0.778-1.088-0.933
							c-0.644,0.72-0.079,1.786,0.466,2.177c-0.555,0.016-0.156,0.983-0.855,0.854c0.681,0.486,1.368,0.964,2.177,1.322
							c0,0.284,0,0.57,0,0.854c-0.254-0.302-0.983-0.884-1.398-0.312c-0.113,0.551,0.648,0.565,0.467,0.934
							c-0.416,0.027-0.562-0.217-0.854-0.311c-0.101,0.528,0.519,0.974,0.388,1.789c-0.319-0.019-0.169-0.506-0.543-0.468
							c-0.243-0.035-0.25,0.167-0.234,0.39c-0.188-0.279-0.289-0.645-0.545-0.855c-0.276,0.033-0.17,0.453-0.466,0.466
							c-0.085-0.608-0.131-1.448-0.777-1.709c0.334-1.426,1.662-0.353,2.723-0.544c-0.251-0.85-1.962-0.615-2.801-0.622
							c-0.033-0.198-0.107-0.356-0.231-0.467c-0.06-0.291,0.296-0.168,0.311-0.388c-0.009-0.444-0.572-0.341-0.776-0.389
							c-0.148-0.733-0.921-0.842-0.777-1.867c-1.545,0.472-0.577-1.835-0.7-3.187c-0.904-0.701-1.487-1.724-2.798-2.021
							c-0.227-0.583-0.899-1.375-2.099-1.243c-0.152-0.653-0.961-0.646-1.167-1.245c-0.069-0.25,0.253-0.109,0.311-0.233
							c-0.726-0.329-0.474-2.26-1.478-2.021c-0.473,0.112-0.186,0.737-0.699,0.933c-0.405-0.373-0.464-1.101-0.233-1.71
							c-0.645-0.31-2.917,0.51-1.865,1.399c-0.802,1.5,0.575,2.425,1.633,2.798c0.327,1.563,1.096,2.688,2.254,3.421
							c0.269-0.192,0.941-0.327,1.321-0.156c-0.001,0.336-0.388,0.287-0.39,0.622c1.027,1.022,3.296,1.211,3.576,2.721
							c-0.665,0.034-1.041-0.871-1.866-0.933c-0.446,0.354-0.933,0.784-0.854,1.321c0.078,0.542,1.059,0.739,0.854,1.4
							c-0.855,0.412-0.674,1.864-1.788,2.021c-0.012-0.792,0.164-1.14,0.622-1.556c0.006-0.963-0.604-1.312-0.622-2.253
							c-0.598-0.015-1.106-0.189-1.166-1.088c-0.945-0.038-1.191-0.777-1.788-1.166c-1.712-0.024-2.063-1.409-2.954-2.254
							c-0.112,0.042-0.401-0.091-0.389,0.078c-0.106-0.468-0.624-0.647-0.854-1.088c-0.347-0.657-0.322-1.601-0.855-2.099
							c-0.31-0.29-1.168-0.756-1.71-0.7c-0.54,0.057-0.827,0.823-1.244,1.088c-0.786,0.5-1.688,0.589-2.099,1.477
							c-0.642,0.335-1.153-0.406-1.788-0.544c-0.155-0.033-0.367,0.169-0.544,0.155c-0.369-0.028-0.641-0.393-0.855-0.388
							c-1.014,0.02-2.014,1.258-1.166,2.409c-0.231,0.166-0.132,0.492-0.077,0.777c-0.75,0.995-2.591,0.98-3.344,1.944
							c-0.346,0.442-0.438,0.979-0.776,1.477c-0.182,0-0.363,0-0.544,0c-0.067,0.836-0.168,1.667,0,2.721
							c-0.31,0.496-0.821,0.787-0.777,1.633c-1.027,0.01-1.346,0.727-1.633,1.477c-1.317-0.035-3.064-0.189-4.12,0.544
							c-0.315,0.22-0.482,0.601-0.777,0.622c-0.921,0.066-0.938-1.867-1.942-2.021c-0.509-0.077-0.967,0.277-1.321,0.312
							c-0.451,0.042-0.792-0.183-1.4,0c0.303-0.604,0.227-1.587,0.234-2.487c-0.171-0.172-0.318,0.077-0.622,0
							c-0.05-0.234-0.122-0.449-0.389-0.467c0.401-1.865,1.606-3.732,0.854-5.831c0.061-0.226,0.123-0.446,0.312-0.543
							c-0.13-0.187-0.546-0.543-0.233-0.7c-0.203-0.29-0.583-0.401-0.7-0.777c0.016-0.062,0.079-0.077,0.078-0.155
							c0.351-0.558,1.481-0.333,1.555-1.166c0.729-0.191,1.35,0.397,2.333,0.389c0.284-0.002,0.57-0.161,0.854-0.155
							c0.5,0.008,1.016,0.329,1.633,0.388c0.96,0.092,2.013-0.074,2.721,0c0.716,0.076,1.331,0.392,1.71-0.155
							c0.616-0.888,0.489-2.596,0.622-3.964c0.2,0.007,0.111,0.303,0.312,0.311c0.257-0.375-0.296-0.504-0.389-0.777
							c0.413-1.363-0.807-1.442-1.322-2.099c0.042-0.44,0.093-0.603-0.078-0.933c0.224,0.016,0.395-0.02,0.466-0.156
							c-0.208-0.324-0.588,0.007-1.01-0.078c0.131-1.003-1.731-0.642-2.177-1.321c-0.437,0.158-0.587,0.146-0.855-0.156
							c0.056-0.286,0.233,0.033,0.389-0.156c-0.233-0.287-0.348-0.23-0.077-0.544c-0.001-0.231-0.576,0.11-0.467-0.232
							c0.966-0.408,2.231-1.151,2.954-0.155c0.53-0.193,1.054-0.368,1.478-0.078c0.407-0.715-0.375-1.524-0.389-2.333
							c0.31,0.057,0.312,0.057,0.622,0c0.047,1.212,1.934,0.724,2.644,0.467c-0.031-0.396-0.384-0.062-0.544-0.234
							c0.439-0.751,1.402-0.981,2.099-1.477c-0.524-1.914,1.576-1.834,2.488-2.565c0.428,0.195,0.543,0.214,1.011,0
							c0.074-0.281-0.336-0.079-0.389-0.233c0.466-0.334,1.289-0.156,1.321-0.622c0.019-0.249-0.741,0.29-1.011-0.156
							c-0.077-0.477,0.521-0.729,0.7-1.166c0.172-0.416-0.042-1.183,0.466-1.167c0.098,0.237-0.319,0.535-0.155,1.089
							c1.21,0.662,1.79-1.201,0.622-1.555c0.064-0.816,0.955-0.806,1.71-0.933c0.43,0.3,0.695,0.512,1.244,0.544
							c0.043-0.432-0.33-0.448-0.544-0.623c-0.044-0.587,0.52-0.57,1.088-0.544c0.15,0.161,0.189,0.433,0.312,0.622
							c0.291,0.083,0.124-0.291,0.389-0.233c0.006,0.123-0.037,0.298,0.078,0.312c0.553-0.095-0.156-0.673,0.155-1.011
							c0.277-0.153,0.415,0.037,0.776,0c0.068-0.327-0.258-0.26-0.388-0.389c0.182-0.278-0.048-0.698-0.156-0.932
							c-0.058-0.266,0.286-0.128,0.312-0.312C36.438,6.327,35.807,5.429,36.469,4.982z"/>
						<path fill="#FFFFFF" d="M18.199,7.47c0.096,0.151-0.076,0.697-0.467,0.622C17.854,7.851,18.051,7.684,18.199,7.47z"/>
						<path fill="#FFFFFF" d="M61.189,36.155c0.145,0.149-0.34,0.331-0.389,0.544C60.526,36.42,61.077,36.307,61.189,36.155z"/>
						<path fill="#FFFFFF" d="M61.189,38.799c-0.209-0.054-0.149,0.16-0.232,0.233c-0.208-0.149-0.016-0.522-0.544-0.31
							c0.057-0.256,0.317-0.305,0.622-0.311c0.111,0.121,0.162,0.302,0.231,0.466C61.226,38.996,61.187,38.882,61.189,38.799z"/>
					</g>
				</g>
			</g>
		</g>
		<g>
			<path fill="#666666" d="M93.14,42.47h0.066l5.955-14.084h1.604v15.996h-1.318V30.945l-0.065-0.011l-5.735,13.447H92.7
				l-5.867-13.777l-0.066,0.011v13.766h-1.317V28.386h1.758L93.14,42.47z"/>
			<path fill="#666666" d="M109.059,44.611c-1.538,0-2.787-0.543-3.746-1.631c-0.959-1.086-1.438-2.484-1.438-4.19v-0.604
				c0-1.714,0.484-3.127,1.456-4.241c0.97-1.113,2.173-1.67,3.608-1.67c1.443,0,2.559,0.463,3.346,1.39
				c0.787,0.927,1.181,2.173,1.181,3.741v1.021h-8.273v0.363c0,1.354,0.344,2.479,1.027,3.373c0.685,0.895,1.632,1.34,2.84,1.34
				c0.727,0,1.393-0.119,2-0.357c0.607-0.237,1.113-0.559,1.517-0.961l0.561,0.901c-0.417,0.438-0.965,0.804-1.643,1.093
				C110.815,44.468,110.004,44.611,109.059,44.611z M108.938,33.396c-1.011,0-1.842,0.362-2.494,1.088
				c-0.651,0.725-1.032,1.644-1.143,2.757l0.033,0.066h6.812v-0.274c0-1.055-0.275-1.925-0.83-2.609
				C110.764,33.738,109.971,33.396,108.938,33.396z"/>
			<path fill="#666666" d="M115.607,38.537c0-1.897,0.401-3.415,1.203-4.554s1.921-1.708,3.356-1.708
				c0.812,0,1.524,0.172,2.137,0.516c0.612,0.345,1.119,0.832,1.522,1.461v-7.009h1.317v17.139h-1.077l-0.187-1.725
				c-0.403,0.63-0.916,1.112-1.538,1.45c-0.622,0.336-1.355,0.504-2.197,0.504c-1.421,0-2.532-0.528-3.334-1.586
				c-0.802-1.059-1.203-2.478-1.203-4.257V38.537z M116.925,38.768c0,1.436,0.287,2.578,0.862,3.427
				c0.574,0.851,1.44,1.274,2.598,1.274c0.85,0,1.556-0.188,2.121-0.564c0.562-0.378,1.003-0.899,1.318-1.565v-5.636
				c-0.302-0.674-0.727-1.223-1.274-1.648c-0.55-0.425-1.264-0.637-2.143-0.637c-1.157,0-2.027,0.474-2.609,1.423
				c-0.582,0.949-0.873,2.181-0.873,3.697V38.768z"/>
			<path fill="#666666" d="M130.12,29.089h-1.309v-1.846h1.309V29.089z M130.12,44.382h-1.309V32.495h1.309V44.382z"/>
			<path fill="#666666" d="M135.811,29.451v3.043h2.615v1.077h-2.615v7.746c0,0.775,0.142,1.328,0.423,1.653
				c0.282,0.326,0.657,0.489,1.126,0.489c0.161,0,0.317-0.009,0.468-0.027c0.149-0.019,0.327-0.05,0.532-0.094l0.198,0.979
				c-0.176,0.088-0.394,0.158-0.654,0.213c-0.26,0.056-0.519,0.082-0.774,0.082c-0.835,0-1.485-0.264-1.95-0.791
				c-0.465-0.526-0.698-1.361-0.698-2.504v-7.746h-2.055v-1.077h2.055v-3.043H135.811z"/>
			<path fill="#666666" d="M145.511,44.611c-1.538,0-2.787-0.543-3.746-1.631c-0.959-1.086-1.438-2.484-1.438-4.19v-0.604
				c0-1.714,0.484-3.127,1.456-4.241c0.97-1.113,2.173-1.67,3.608-1.67c1.443,0,2.559,0.463,3.345,1.39
				c0.788,0.927,1.182,2.173,1.182,3.741v1.021h-8.273v0.363c0,1.354,0.343,2.479,1.027,3.373s1.632,1.34,2.84,1.34
				c0.726,0,1.392-0.119,2-0.357c0.607-0.237,1.113-0.559,1.516-0.961l0.562,0.901c-0.417,0.438-0.965,0.804-1.644,1.093
				C147.268,44.468,146.457,44.611,145.511,44.611z M145.391,33.396c-1.011,0-1.842,0.362-2.494,1.088
				c-0.651,0.725-1.033,1.644-1.143,2.757l0.033,0.066h6.812v-0.274c0-1.055-0.276-1.925-0.83-2.609
				C147.216,33.738,146.423,33.396,145.391,33.396z"/>
			<path fill="#666666" d="M158.003,33.626l-0.935-0.065c-0.827,0-1.507,0.232-2.038,0.697c-0.53,0.465-0.909,1.104-1.137,1.917
				v8.207h-1.317V32.495h1.153l0.165,1.978v0.132c0.344-0.732,0.807-1.304,1.384-1.714c0.578-0.41,1.268-0.615,2.065-0.615
				c0.161,0,0.315,0.013,0.461,0.039c0.146,0.026,0.267,0.053,0.363,0.082L158.003,33.626z"/>
			<path fill="#666666" d="M165.683,33.626l-0.934-0.065c-0.828,0-1.507,0.232-2.038,0.697c-0.531,0.465-0.91,1.104-1.137,1.917
				v8.207h-1.318V32.495h1.154l0.165,1.978v0.132c0.344-0.732,0.806-1.304,1.384-1.714c0.578-0.41,1.267-0.615,2.064-0.615
				c0.161,0,0.315,0.013,0.461,0.039c0.146,0.026,0.268,0.053,0.363,0.082L165.683,33.626z"/>
			<path fill="#666666" d="M175.46,44.382c-0.081-0.417-0.142-0.776-0.183-1.077c-0.04-0.3-0.061-0.607-0.061-0.923
				c-0.41,0.646-0.985,1.177-1.725,1.599c-0.74,0.422-1.59,0.631-2.55,0.631c-1.165,0-2.066-0.309-2.708-0.928
				c-0.641-0.619-0.961-1.459-0.961-2.521s0.465-1.923,1.396-2.582c0.93-0.659,2.139-0.989,3.626-0.989h2.922V36.12
				c0-0.85-0.269-1.516-0.807-2c-0.539-0.483-1.299-0.725-2.28-0.725c-0.901,0-1.628,0.22-2.181,0.659
				c-0.554,0.439-0.83,0.992-0.83,1.659h-1.22l-0.021-0.066c-0.044-0.894,0.339-1.679,1.147-2.356
				c0.81-0.677,1.866-1.016,3.169-1.016c1.304,0,2.352,0.333,3.143,1s1.187,1.623,1.187,2.868v5.845
				c0,0.417,0.024,0.824,0.071,1.219c0.048,0.396,0.126,0.788,0.236,1.176L175.46,44.382L175.46,44.382z M171.087,43.448
				c1.011,0,1.886-0.24,2.626-0.72c0.74-0.48,1.241-1.098,1.505-1.853v-2.274h-2.933c-1.069,0-1.952,0.254-2.648,0.764
				c-0.696,0.51-1.043,1.123-1.043,1.84c0,0.674,0.222,1.216,0.665,1.626C169.702,43.243,170.311,43.448,171.087,43.448z"/>
			<path fill="#666666" d="M181.195,32.495l0.121,2.065c0.389-0.725,0.904-1.287,1.55-1.687c0.645-0.399,1.409-0.599,2.296-0.599
				c1.289,0,2.271,0.394,2.943,1.181s1.012,2.016,1.012,3.686v7.24h-1.318v-7.229c0-1.362-0.254-2.326-0.763-2.889
				c-0.51-0.564-1.232-0.846-2.17-0.846c-0.938,0-1.694,0.231-2.27,0.692c-0.575,0.462-0.991,1.081-1.247,1.857v8.416h-1.317V32.495
				H181.195z"/>
			<path fill="#666666" d="M197.07,44.611c-1.537,0-2.786-0.543-3.745-1.631c-0.959-1.086-1.439-2.484-1.439-4.19v-0.604
				c0-1.714,0.485-3.127,1.456-4.241c0.97-1.113,2.173-1.67,3.609-1.67c1.442,0,2.558,0.463,3.345,1.39
				c0.788,0.927,1.181,2.173,1.181,3.741v1.021h-8.272v0.363c0,1.354,0.343,2.479,1.026,3.373c0.686,0.895,1.632,1.34,2.84,1.34
				c0.727,0,1.393-0.119,2-0.357c0.607-0.237,1.113-0.559,1.517-0.961l0.561,0.901c-0.417,0.438-0.965,0.804-1.643,1.093
				C198.827,44.468,198.016,44.611,197.07,44.611z M196.95,33.396c-1.012,0-1.843,0.362-2.494,1.088
				c-0.652,0.725-1.033,1.644-1.144,2.757l0.033,0.066h6.812v-0.274c0-1.055-0.276-1.925-0.83-2.609
				C198.775,33.738,197.982,33.396,196.95,33.396z"/>
			<path fill="#666666" d="M211.66,44.382c-0.081-0.417-0.142-0.776-0.183-1.077c-0.04-0.3-0.061-0.607-0.061-0.923
				c-0.41,0.646-0.985,1.177-1.726,1.599c-0.739,0.422-1.589,0.631-2.549,0.631c-1.165,0-2.066-0.309-2.708-0.928
				c-0.641-0.619-0.961-1.459-0.961-2.521s0.465-1.923,1.396-2.582c0.93-0.659,2.139-0.989,3.626-0.989h2.922V36.12
				c0-0.85-0.27-1.516-0.808-2c-0.539-0.483-1.298-0.725-2.279-0.725c-0.901,0-1.628,0.22-2.182,0.659
				c-0.553,0.439-0.83,0.992-0.83,1.659H204.1l-0.021-0.066c-0.044-0.894,0.339-1.679,1.147-2.356
				c0.81-0.677,1.866-1.016,3.169-1.016c1.304,0,2.352,0.333,3.143,1s1.187,1.623,1.187,2.868v5.845
				c0,0.417,0.024,0.824,0.071,1.219c0.048,0.396,0.126,0.788,0.235,1.176L211.66,44.382L211.66,44.382z M207.287,43.448
				c1.011,0,1.886-0.24,2.626-0.72c0.739-0.48,1.24-1.098,1.505-1.853v-2.274h-2.934c-1.068,0-1.951,0.254-2.647,0.764
				c-0.696,0.51-1.043,1.123-1.043,1.84c0,0.674,0.222,1.216,0.665,1.626C205.901,43.243,206.511,43.448,207.287,43.448z"/>
			<path fill="#666666" d="M217.395,32.495l0.121,2.065c0.388-0.725,0.904-1.287,1.549-1.687c0.646-0.399,1.41-0.599,2.296-0.599
				c1.289,0,2.271,0.394,2.944,1.181s1.011,2.016,1.011,3.686v7.24h-1.317v-7.229c0-1.362-0.254-2.326-0.764-2.889
				c-0.509-0.564-1.231-0.846-2.17-0.846c-0.938,0-1.693,0.231-2.269,0.692c-0.575,0.462-0.991,1.081-1.247,1.857v8.416h-1.318
				V32.495H217.395z"/>
			<path fill="#666666" d="M246.256,44.382h-1.318v-7.361h-9.085v7.361h-1.317V28.386h1.317V35.9h9.085v-7.515h1.318V44.382z"/>
			<path fill="#666666" d="M251.508,29.089H250.2v-1.846h1.308V29.089z M251.508,44.382H250.2V32.495h1.308V44.382z"/>
			<path fill="#666666" d="M262.263,41.339c0-0.557-0.229-1.042-0.687-1.456s-1.284-0.752-2.479-1.016
				c-1.406-0.293-2.452-0.694-3.137-1.203c-0.686-0.509-1.027-1.221-1.027-2.137c0-0.908,0.382-1.677,1.148-2.307
				c0.765-0.63,1.777-0.945,3.038-0.945c1.325,0,2.384,0.335,3.175,1.005c0.791,0.67,1.168,1.496,1.132,2.478l-0.022,0.065h-1.219
				c0-0.651-0.28-1.219-0.841-1.703c-0.56-0.483-1.302-0.725-2.225-0.725c-0.952,0-1.671,0.209-2.153,0.626
				c-0.483,0.418-0.726,0.905-0.726,1.461c0,0.542,0.207,0.991,0.621,1.346s1.24,0.668,2.479,0.939
				c1.392,0.308,2.444,0.736,3.159,1.286c0.714,0.549,1.07,1.289,1.07,2.219c0,0.989-0.4,1.793-1.202,2.412
				c-0.803,0.619-1.862,0.928-3.182,0.928c-1.442,0-2.576-0.344-3.399-1.031c-0.824-0.688-1.215-1.51-1.17-2.461l0.021-0.066h1.208
				c0.051,0.857,0.401,1.479,1.049,1.868c0.648,0.388,1.412,0.582,2.291,0.582c0.952,0,1.703-0.212,2.252-0.637
				S262.263,41.932,262.263,41.339z"/>
			<path fill="#666666" d="M268.657,29.451v3.043h2.614v1.077h-2.614v7.746c0,0.775,0.141,1.328,0.423,1.653
				c0.281,0.326,0.656,0.489,1.126,0.489c0.161,0,0.316-0.009,0.467-0.027s0.328-0.05,0.533-0.094l0.197,0.979
				c-0.176,0.088-0.394,0.158-0.653,0.213c-0.26,0.056-0.52,0.082-0.775,0.082c-0.835,0-1.484-0.264-1.95-0.791
				c-0.465-0.526-0.697-1.361-0.697-2.504v-7.746h-2.056v-1.077h2.056v-3.043H268.657z"/>
			<path fill="#666666" d="M273.107,38.263c0-1.751,0.479-3.187,1.439-4.307c0.959-1.121,2.229-1.681,3.812-1.681
				c1.589,0,2.864,0.56,3.823,1.681c0.959,1.12,1.439,2.556,1.439,4.307v0.362c0,1.758-0.479,3.195-1.435,4.312
				s-2.225,1.674-3.807,1.674c-1.597,0-2.875-0.557-3.834-1.674s-1.439-2.555-1.439-4.312L273.107,38.263L273.107,38.263z
				 M274.425,38.625c0,1.377,0.348,2.534,1.043,3.473c0.695,0.938,1.666,1.405,2.912,1.405c1.223,0,2.184-0.469,2.884-1.405
				c0.699-0.938,1.049-2.096,1.049-3.473v-0.362c0-1.355-0.352-2.505-1.055-3.45c-0.703-0.944-1.67-1.417-2.9-1.417
				c-1.229,0-2.192,0.473-2.889,1.417c-0.696,0.945-1.043,2.095-1.043,3.45L274.425,38.625L274.425,38.625z"/>
			<path fill="#666666" d="M291.794,33.626l-0.935-0.065c-0.827,0-1.507,0.232-2.038,0.697c-0.53,0.465-0.909,1.104-1.137,1.917
				v8.207h-1.317V32.495h1.153l0.165,1.978v0.132c0.344-0.732,0.807-1.304,1.384-1.714c0.578-0.41,1.268-0.615,2.065-0.615
				c0.161,0,0.315,0.013,0.461,0.039c0.146,0.026,0.267,0.053,0.363,0.082L291.794,33.626z"/>
			<path fill="#666666" d="M297.617,41.163l0.418,1.417h0.064l3.593-10.085h1.473l-5.164,13.788
				c-0.309,0.806-0.707,1.49-1.197,2.055c-0.491,0.564-1.209,0.846-2.153,0.846c-0.153,0-0.341-0.016-0.561-0.049
				s-0.381-0.068-0.483-0.104l0.154-1.1c0.088,0.016,0.229,0.031,0.423,0.049c0.194,0.019,0.335,0.027,0.423,0.027
				c0.571,0,1.029-0.203,1.373-0.609s0.637-0.929,0.879-1.565l0.626-1.604l-4.592-11.732h1.461L297.617,41.163z"/>
		</g>
	</g>
</g>
<g id="Layer_2" display="none">
	
		<line display="inline" fill="none" stroke="#000000" stroke-width="0.5" stroke-miterlimit="10" x1="1353.545" y1="5940.398" x2="1503.56" y2="5894.574"/>
	
		<line display="inline" fill="none" stroke="#000000" stroke-width="0.5" stroke-miterlimit="10" x1="1503.56" y1="5894.574" x2="1653.573" y2="5848.75"/>
	
		<line display="inline" fill="none" stroke="#000000" stroke-width="0.5" stroke-miterlimit="10" x1="1730.24" y1="5894.574" x2="1880.256" y2="5940.398"/>
	
		<line display="inline" fill="none" stroke="#000000" stroke-width="0.5" stroke-miterlimit="10" x1="1580.227" y1="5848.75" x2="1730.24" y2="5894.574"/>
</g>
</svg>
