<?xml version="1.0" encoding="utf-8"?>
<!-- Generator: Adobe Illustrator 15.1.0, SVG Export Plug-In . SVG Version: 6.00 Build 0)  -->
<!DOCTYPE svg PUBLIC "-//W3C//DTD SVG 1.1//EN" "http://www.w3.org/Graphics/SVG/1.1/DTD/svg11.dtd">
<svg version="1.1" id="Layer_1" xmlns="http://www.w3.org/2000/svg" xmlns:xlink="http://www.w3.org/1999/xlink" x="0px" y="0px"
	 width="556px" height="77px" viewBox="0 0 556 77" enable-background="new 0 0 556 77" xml:space="preserve">
<g id="Layer_1_1_">
	<g>
		<rect x="2" y="2" opacity="0.16" enable-background="new    " width="554" height="75"/>
		<rect x="0" fill="#FFFFFF" width="554" height="74"/>
	</g>
	<g>
		<defs>
			<filter id="Adobe_OpacityMaskFilter" filterUnits="userSpaceOnUse" x="5" y="2.465" width="65.362" height="65.459">
				<feColorMatrix  type="matrix" values="1 0 0 0 0  0 1 0 0 0  0 0 1 0 0  0 0 0 1 0"/>
			</filter>
		</defs>
		<mask maskUnits="userSpaceOnUse" x="5" y="2.465" width="65.362" height="65.459" id="zvEaJT_73_">
			<g filter="url(#Adobe_OpacityMaskFilter)">
				<circle fill="#FFFFFF" cx="39.833" cy="35.916" r="23.733"/>
			</g>
		</mask>
		<g id="zvEaJT_58_" mask="url(#zvEaJT_73_)">
			<rect x="5" y="2.465" fill="#82C5D8" width="65.362" height="65.459"/>
			<g>
				<g>
					<path fill="#FFFFFF" d="M63.104,24.088L51.816,42.882L28.671,28.981l11.288-18.794L63.104,24.088z M42.648,16.197l0.928-1.543
						c0.125-0.208,0.156-0.435,0.097-0.679c-0.062-0.243-0.195-0.429-0.405-0.555l-1.542-0.926c-0.21-0.126-0.436-0.158-0.681-0.097
						c-0.244,0.06-0.429,0.195-0.556,0.404l-0.927,1.543c-0.125,0.209-0.158,0.438-0.097,0.68c0.062,0.245,0.195,0.43,0.405,0.556
						l1.542,0.927c0.209,0.125,0.437,0.157,0.681,0.096S42.522,16.407,42.648,16.197z M39.868,20.827l0.927-1.544
						c0.125-0.208,0.157-0.436,0.097-0.68s-0.195-0.43-0.405-0.555l-1.542-0.928c-0.21-0.125-0.436-0.157-0.681-0.096
						c-0.244,0.062-0.429,0.196-0.555,0.405l-0.927,1.543c-0.125,0.209-0.158,0.435-0.098,0.68c0.062,0.245,0.196,0.429,0.405,0.554
						l1.543,0.927c0.208,0.126,0.436,0.158,0.68,0.097C39.558,21.17,39.742,21.036,39.868,20.827z M37.088,25.456l0.927-1.543
						c0.125-0.21,0.157-0.436,0.097-0.681c-0.061-0.244-0.196-0.43-0.405-0.555l-1.542-0.927c-0.21-0.125-0.438-0.157-0.682-0.097
						c-0.244,0.062-0.429,0.197-0.555,0.406l-0.927,1.543c-0.125,0.208-0.158,0.435-0.098,0.68c0.062,0.244,0.195,0.428,0.405,0.554
						l1.543,0.927c0.208,0.125,0.437,0.159,0.681,0.097C36.777,25.799,36.962,25.665,37.088,25.456z M34.308,30.084l0.927-1.543
						c0.125-0.209,0.157-0.435,0.098-0.679c-0.062-0.244-0.196-0.428-0.406-0.555l-1.543-0.926
						c-0.209-0.126-0.436-0.157-0.679-0.097c-0.245,0.061-0.431,0.195-0.556,0.404l-0.927,1.542
						c-0.125,0.208-0.158,0.435-0.097,0.68c0.061,0.245,0.195,0.43,0.404,0.555l1.543,0.928c0.208,0.124,0.437,0.157,0.681,0.096
						C33.997,30.428,34.183,30.293,34.308,30.084z M52.212,28.241l3.707-6.172c0.125-0.209,0.158-0.436,0.096-0.679
						c-0.061-0.246-0.196-0.43-0.404-0.556l-9.258-5.561c-0.21-0.125-0.437-0.157-0.681-0.096c-0.245,0.061-0.429,0.195-0.555,0.405
						l-3.707,6.171c-0.126,0.209-0.159,0.436-0.098,0.682c0.062,0.243,0.196,0.428,0.405,0.554l9.258,5.56
						c0.208,0.126,0.437,0.158,0.68,0.097C51.9,28.585,52.087,28.45,52.212,28.241z M46.652,37.499l3.707-6.171
						c0.126-0.208,0.158-0.437,0.098-0.681c-0.062-0.244-0.196-0.43-0.405-0.554l-9.258-5.562c-0.209-0.125-0.437-0.158-0.681-0.097
						c-0.244,0.062-0.429,0.197-0.555,0.406l-3.707,6.171c-0.126,0.208-0.158,0.437-0.097,0.681
						c0.061,0.244,0.196,0.429,0.405,0.555l9.258,5.561c0.209,0.125,0.436,0.158,0.68,0.097
						C46.341,37.842,46.526,37.707,46.652,37.499z M59.621,26.392l0.927-1.542c0.125-0.209,0.158-0.436,0.096-0.68
						c-0.061-0.245-0.196-0.43-0.403-0.555l-1.544-0.927c-0.209-0.125-0.436-0.157-0.68-0.096c-0.244,0.061-0.429,0.195-0.554,0.404
						l-0.928,1.543c-0.125,0.209-0.158,0.437-0.098,0.681c0.062,0.244,0.195,0.43,0.404,0.555l1.543,0.926
						c0.208,0.126,0.436,0.158,0.68,0.097C59.311,26.736,59.496,26.602,59.621,26.392z M56.841,31.021l0.927-1.544
						c0.126-0.208,0.157-0.436,0.098-0.679c-0.062-0.245-0.196-0.43-0.404-0.555l-1.543-0.928c-0.208-0.125-0.437-0.157-0.681-0.096
						c-0.244,0.062-0.429,0.196-0.555,0.404l-0.927,1.543c-0.125,0.209-0.158,0.436-0.097,0.681
						c0.061,0.245,0.195,0.429,0.403,0.555l1.543,0.926c0.208,0.126,0.437,0.159,0.681,0.098
						C56.53,31.365,56.715,31.23,56.841,31.021z M54.061,35.65l0.927-1.543c0.126-0.208,0.157-0.436,0.098-0.68
						c-0.062-0.245-0.196-0.429-0.406-0.556l-1.542-0.926c-0.209-0.126-0.436-0.158-0.68-0.097c-0.245,0.061-0.43,0.197-0.556,0.405
						l-0.927,1.543c-0.125,0.209-0.158,0.436-0.097,0.682c0.061,0.243,0.196,0.428,0.404,0.553l1.543,0.927
						c0.209,0.126,0.436,0.158,0.68,0.097C53.75,35.994,53.936,35.859,54.061,35.65z M51.28,40.277l0.928-1.542
						c0.126-0.209,0.158-0.435,0.097-0.679c-0.062-0.246-0.196-0.43-0.405-0.555l-1.543-0.926c-0.209-0.126-0.436-0.159-0.68-0.097
						c-0.245,0.061-0.429,0.195-0.555,0.404l-0.928,1.543c-0.125,0.209-0.156,0.436-0.097,0.681c0.062,0.244,0.196,0.43,0.405,0.555
						l1.543,0.927c0.209,0.125,0.436,0.158,0.68,0.097C50.97,40.622,51.155,40.486,51.28,40.277z"/>
				</g>
				<g>
					<path fill="#FFFFFF" d="M51.816,42.882L40.528,61.677L17.383,47.775l11.289-18.794L51.816,42.882z M31.36,34.991l0.928-1.543
						c0.125-0.208,0.156-0.436,0.097-0.68c-0.062-0.244-0.195-0.429-0.405-0.554l-1.542-0.928c-0.21-0.125-0.436-0.158-0.681-0.096
						c-0.244,0.062-0.429,0.195-0.555,0.404l-0.928,1.543c-0.125,0.21-0.157,0.436-0.097,0.681c0.062,0.243,0.195,0.429,0.405,0.554
						l1.543,0.927c0.209,0.125,0.436,0.156,0.68,0.096C31.05,35.335,31.234,35.201,31.36,34.991z M28.58,39.621l0.927-1.544
						c0.125-0.208,0.157-0.436,0.097-0.679c-0.061-0.244-0.194-0.429-0.404-0.555l-1.542-0.927
						c-0.211-0.125-0.437-0.157-0.682-0.096c-0.244,0.061-0.429,0.195-0.555,0.404l-0.926,1.543
						c-0.125,0.209-0.158,0.436-0.098,0.68c0.062,0.244,0.196,0.429,0.405,0.555l1.543,0.926c0.208,0.127,0.437,0.158,0.68,0.098
						C28.27,39.965,28.454,39.83,28.58,39.621z M25.8,44.249l0.927-1.542c0.125-0.209,0.157-0.436,0.098-0.68
						c-0.062-0.245-0.196-0.43-0.405-0.555l-1.542-0.928c-0.21-0.125-0.437-0.158-0.682-0.096c-0.243,0.061-0.429,0.195-0.555,0.404
						l-0.927,1.543c-0.125,0.209-0.158,0.436-0.097,0.681c0.061,0.243,0.195,0.43,0.404,0.555l1.543,0.927
						c0.208,0.125,0.437,0.158,0.681,0.097C25.489,44.593,25.674,44.458,25.8,44.249z M23.02,48.878l0.927-1.543
						c0.125-0.209,0.157-0.435,0.098-0.68c-0.062-0.244-0.196-0.431-0.406-0.554l-1.542-0.929c-0.209-0.125-0.436-0.157-0.68-0.096
						c-0.245,0.062-0.431,0.194-0.556,0.405l-0.927,1.541c-0.125,0.209-0.158,0.437-0.096,0.682
						c0.061,0.244,0.196,0.428,0.404,0.555l1.543,0.926c0.208,0.125,0.436,0.157,0.68,0.098
						C22.709,49.223,22.895,49.086,23.02,48.878z M40.924,47.035l3.707-6.174c0.125-0.209,0.158-0.435,0.096-0.68
						c-0.061-0.244-0.196-0.43-0.403-0.555l-9.259-5.56c-0.209-0.126-0.437-0.159-0.681-0.098c-0.245,0.062-0.429,0.195-0.555,0.404
						l-3.707,6.172c-0.126,0.209-0.158,0.436-0.098,0.682c0.062,0.243,0.196,0.429,0.405,0.554l9.258,5.561
						c0.209,0.126,0.437,0.158,0.681,0.099C40.613,47.378,40.798,47.244,40.924,47.035z M35.364,56.292l3.707-6.171
						c0.125-0.209,0.158-0.436,0.098-0.682c-0.062-0.244-0.196-0.43-0.405-0.555l-9.258-5.561c-0.209-0.125-0.437-0.158-0.681-0.098
						c-0.245,0.062-0.431,0.197-0.556,0.406l-3.707,6.172c-0.125,0.207-0.158,0.436-0.097,0.68s0.196,0.43,0.405,0.556l9.258,5.562
						c0.209,0.123,0.436,0.156,0.68,0.096C35.053,56.636,35.238,56.501,35.364,56.292z M48.333,45.186l0.927-1.543
						c0.126-0.209,0.158-0.436,0.097-0.68c-0.061-0.245-0.195-0.43-0.403-0.555l-1.543-0.926c-0.208-0.127-0.437-0.159-0.681-0.098
						c-0.245,0.061-0.429,0.195-0.555,0.405l-0.927,1.542c-0.125,0.209-0.158,0.438-0.098,0.682
						c0.062,0.243,0.196,0.428,0.404,0.555l1.543,0.927c0.208,0.126,0.437,0.157,0.68,0.097
						C48.022,45.531,48.208,45.395,48.333,45.186z M45.553,49.814l0.927-1.543c0.126-0.207,0.158-0.435,0.098-0.679
						c-0.062-0.245-0.196-0.43-0.405-0.555l-1.542-0.927c-0.208-0.127-0.437-0.157-0.68-0.098c-0.245,0.062-0.43,0.195-0.556,0.404
						l-0.927,1.543c-0.125,0.209-0.158,0.438-0.097,0.68c0.061,0.244,0.195,0.43,0.403,0.555l1.543,0.927
						c0.209,0.125,0.437,0.158,0.681,0.097C45.242,50.159,45.428,50.023,45.553,49.814z M42.773,54.443l0.927-1.543
						c0.126-0.209,0.157-0.436,0.097-0.68c-0.062-0.244-0.196-0.43-0.405-0.555l-1.543-0.926c-0.208-0.126-0.436-0.158-0.68-0.098
						c-0.245,0.062-0.43,0.196-0.556,0.405l-0.927,1.543c-0.125,0.208-0.158,0.437-0.097,0.681c0.061,0.244,0.196,0.429,0.404,0.554
						l1.543,0.927c0.209,0.126,0.436,0.157,0.68,0.098C42.462,54.788,42.647,54.652,42.773,54.443z M39.992,59.073l0.927-1.542
						c0.126-0.211,0.158-0.438,0.097-0.682c-0.061-0.244-0.196-0.43-0.405-0.556l-1.543-0.926c-0.209-0.125-0.436-0.158-0.68-0.097
						c-0.245,0.06-0.43,0.194-0.555,0.404l-0.928,1.542c-0.125,0.209-0.156,0.437-0.097,0.681c0.062,0.244,0.196,0.43,0.405,0.555
						l1.543,0.927c0.209,0.126,0.436,0.158,0.68,0.097C39.682,59.416,39.867,59.281,39.992,59.073z"/>
				</g>
			</g>
		</g>
		<g>
			<path fill="#666666" d="M93.14,41.884h0.066l5.955-14.085h1.604v15.996h-1.318V30.359l-0.065-0.011l-5.735,13.447H92.7
				l-5.867-13.776l-0.066,0.011v13.766h-1.317V27.799h1.758L93.14,41.884z"/>
			<path fill="#666666" d="M103.808,37.676c0-1.75,0.479-3.186,1.439-4.307s2.229-1.681,3.812-1.681c1.589,0,2.864,0.56,3.823,1.681
				s1.438,2.556,1.438,4.307v0.362c0,1.758-0.478,3.194-1.434,4.312s-2.225,1.676-3.807,1.676c-1.598,0-2.875-0.559-3.834-1.676
				s-1.439-2.555-1.439-4.312L103.808,37.676L103.808,37.676z M105.126,38.038c0,1.377,0.348,2.534,1.043,3.472
				c0.694,0.938,1.666,1.406,2.912,1.406c1.223,0,2.184-0.469,2.884-1.406c0.699-0.938,1.049-2.095,1.049-3.472v-0.362
				c0-1.355-0.352-2.505-1.055-3.45s-1.67-1.417-2.9-1.417c-1.229,0-2.192,0.473-2.889,1.417s-1.043,2.095-1.043,3.45
				L105.126,38.038L105.126,38.038z"/>
			<path fill="#666666" d="M120.287,40.818l0.384,1.395h0.065l0.417-1.395l3.23-8.91h1.362l-4.517,11.887h-1.055l-4.526-11.887
				h1.362L120.287,40.818z"/>
			<path fill="#666666" d="M129.384,28.502h-1.308v-1.846h1.308V28.502z M129.384,43.795h-1.308V31.908h1.308V43.795z"/>
			<path fill="#666666" d="M137.535,44.025c-1.538,0-2.787-0.543-3.746-1.631s-1.439-2.484-1.439-4.19V37.6
				c0-1.714,0.485-3.127,1.456-4.24c0.97-1.113,2.173-1.67,3.609-1.67c1.442,0,2.558,0.463,3.345,1.39
				c0.788,0.927,1.181,2.173,1.181,3.741v1.022h-8.272v0.362c0,1.355,0.343,2.479,1.026,3.373c0.686,0.895,1.633,1.34,2.841,1.34
				c0.726,0,1.392-0.119,2-0.355c0.606-0.238,1.112-0.56,1.516-0.963l0.561,0.901c-0.417,0.438-0.965,0.804-1.643,1.093
				C139.292,43.881,138.48,44.025,137.535,44.025z M137.415,32.809c-1.012,0-1.843,0.363-2.494,1.088
				c-0.652,0.725-1.033,1.645-1.144,2.758l0.033,0.064h6.812v-0.274c0-1.055-0.276-1.924-0.83-2.609
				C139.24,33.151,138.447,32.809,137.415,32.809z"/>
			<path fill="#666666" d="M151.719,40.752c0-0.557-0.229-1.042-0.687-1.456c-0.458-0.413-1.284-0.752-2.479-1.016
				c-1.406-0.293-2.452-0.694-3.137-1.203c-0.686-0.509-1.027-1.222-1.027-2.137c0-0.908,0.382-1.678,1.148-2.308
				c0.765-0.63,1.777-0.944,3.038-0.944c1.325,0,2.384,0.335,3.175,1.005s1.168,1.496,1.132,2.478l-0.022,0.066h-1.219
				c0-0.652-0.28-1.219-0.841-1.703c-0.56-0.483-1.302-0.726-2.225-0.726c-0.952,0-1.671,0.209-2.153,0.626
				c-0.483,0.417-0.726,0.905-0.726,1.461c0,0.542,0.207,0.99,0.621,1.346c0.414,0.355,1.24,0.668,2.479,0.939
				c1.392,0.308,2.444,0.736,3.159,1.285c0.714,0.549,1.07,1.289,1.07,2.219c0,0.989-0.4,1.793-1.202,2.412
				c-0.803,0.619-1.862,0.928-3.182,0.928c-1.442,0-2.576-0.344-3.399-1.032c-0.824-0.688-1.215-1.509-1.171-2.461l0.022-0.066
				h1.208c0.051,0.856,0.401,1.479,1.049,1.868c0.648,0.388,1.412,0.582,2.291,0.582c0.952,0,1.703-0.212,2.252-0.637
				C151.444,41.854,151.719,41.345,151.719,40.752z"/>
		</g>
	</g>
</g>
<g id="Layer_2" display="none">
	
		<line display="inline" fill="none" stroke="#000000" stroke-width="0.5" stroke-miterlimit="10" x1="1353.545" y1="6462.398" x2="1503.56" y2="6416.574"/>
	
		<line display="inline" fill="none" stroke="#000000" stroke-width="0.5" stroke-miterlimit="10" x1="1503.56" y1="6416.574" x2="1653.573" y2="6370.75"/>
	
		<line display="inline" fill="none" stroke="#000000" stroke-width="0.5" stroke-miterlimit="10" x1="1730.24" y1="6416.574" x2="1880.256" y2="6462.398"/>
	
		<line display="inline" fill="none" stroke="#000000" stroke-width="0.5" stroke-miterlimit="10" x1="1580.227" y1="6370.75" x2="1730.24" y2="6416.574"/>
</g>
</svg>
