<?xml version="1.0" encoding="utf-8"?>
<!-- Generator: Adobe Illustrator 15.1.0, SVG Export Plug-In . SVG Version: 6.00 Build 0)  -->
<!DOCTYPE svg PUBLIC "-//W3C//DTD SVG 1.1//EN" "http://www.w3.org/Graphics/SVG/1.1/DTD/svg11.dtd">
<svg version="1.1" id="Layer_1" xmlns="http://www.w3.org/2000/svg" xmlns:xlink="http://www.w3.org/1999/xlink" x="0px" y="0px"
	 width="556px" height="77px" viewBox="0 0 556 77" enable-background="new 0 0 556 77" xml:space="preserve">
<g id="Layer_1_1_">
	<g>
		<rect x="2" y="2" opacity="0.16" enable-background="new    " width="554" height="75"/>
		<rect x="0" fill="#FFFFFF" width="554" height="74"/>
	</g>
	<g>
		<defs>
			<filter id="Adobe_OpacityMaskFilter" filterUnits="userSpaceOnUse" x="6.68" y="2.209" width="63.8" height="66.092">
				<feColorMatrix  type="matrix" values="1 0 0 0 0  0 1 0 0 0  0 0 1 0 0  0 0 0 1 0"/>
			</filter>
		</defs>
		<mask maskUnits="userSpaceOnUse" x="6.68" y="2.209" width="63.8" height="66.092" id="zvEaJT_74_">
			<g filter="url(#Adobe_OpacityMaskFilter)">
				<circle fill="#FFFFFF" cx="39.833" cy="36.112" r="23.733"/>
			</g>
		</mask>
		<g id="zvEaJT_55_" mask="url(#zvEaJT_74_)">
			<rect x="6.68" y="2.209" fill="#22B573" width="63.8" height="66.092"/>
			<g id="big_scope_7_">
				
					<rect x="31.687" y="35.941" transform="matrix(-0.8195 -0.573 0.573 -0.8195 39.9821 87.5753)" fill="#FFFFFF" width="4.19" height="3.101"/>
				<circle fill="#FFFFFF" cx="42.86" cy="31.913" r="2.269"/>
				<path fill="#FFFFFF" d="M44.304,48.936c0.873-1.875,2.872-7.131,0.843-12.291c1.757-0.851,2.973-2.647,2.973-4.731
					c0-2.25-1.416-4.165-3.403-4.916l4.937-7.063l-1.238-0.867l1.238-1.774l-2.295-1.606l-1.24,1.775l-1.219-0.852l-12.05,17.238
					l4.757,3.324l1.275-1.825c0.45,0.521,1.004,0.948,1.624,1.261c0.065,0.738,0.242,3.993-1.375,7.688H27.546v1.958h10.569
					c-0.548,0.899-1.219,1.802-2.03,2.683H25.793v3.506h25.266v-3.506h-6.755V48.936z M38.734,31.913
					c0-2.278,1.848-4.125,4.125-4.125c2.279,0,4.125,1.847,4.125,4.125c0,2.279-1.846,4.125-4.125,4.125
					C40.581,36.039,38.734,34.192,38.734,31.913z"/>
			</g>
		</g>
		<g>
			<path fill="#666666" d="M85.449,43.991V27.995h4.878c1.956,0,3.571,0.652,4.851,1.956c1.278,1.304,1.917,2.978,1.917,5.021v2.055
				c0,2.043-0.639,3.715-1.917,5.015s-2.895,1.95-4.851,1.95L85.449,43.991L85.449,43.991z M86.768,29.115v13.766h3.561
				c1.582,0,2.886-0.553,3.91-1.658c1.025-1.106,1.538-2.506,1.538-4.198v-2.087c0-1.67-0.515-3.058-1.543-4.164
				s-2.331-1.659-3.905-1.659H86.768z"/>
			<path fill="#666666" d="M101.753,28.698h-1.309v-1.846h1.309V28.698z M101.753,43.991h-1.309V32.104h1.309V43.991z"/>
			<path fill="#666666" d="M112.508,40.947c0-0.557-0.229-1.042-0.688-1.456s-1.283-0.752-2.478-1.016
				c-1.406-0.293-2.452-0.694-3.137-1.203c-0.686-0.509-1.027-1.221-1.027-2.137c0-0.908,0.382-1.677,1.148-2.307
				c0.765-0.63,1.777-0.945,3.038-0.945c1.325,0,2.384,0.335,3.175,1.005c0.791,0.67,1.168,1.496,1.132,2.477l-0.022,0.066h-1.219
				c0-0.652-0.28-1.22-0.841-1.703s-1.302-0.725-2.225-0.725c-0.952,0-1.671,0.208-2.153,0.626
				c-0.483,0.417-0.726,0.904-0.726,1.461c0,0.542,0.207,0.991,0.621,1.346s1.24,0.668,2.479,0.939
				c1.392,0.308,2.443,0.736,3.159,1.285c0.714,0.55,1.07,1.289,1.07,2.22c0,0.988-0.4,1.792-1.203,2.411
				c-0.802,0.619-1.861,0.93-3.181,0.93c-1.443,0-2.576-0.346-3.399-1.033c-0.824-0.688-1.215-1.51-1.171-2.461l0.022-0.065h1.208
				c0.051,0.856,0.401,1.479,1.049,1.866c0.648,0.39,1.412,0.584,2.291,0.584c0.952,0,1.703-0.213,2.252-0.637
				C112.233,42.05,112.508,41.541,112.508,40.947z"/>
			<path fill="#666666" d="M121.199,43.111c0.842,0,1.587-0.248,2.235-0.746s0.973-1.19,0.973-2.077h1.175l0.021,0.065
				c0.029,1.1-0.402,2.019-1.297,2.758c-0.894,0.738-1.93,1.109-3.108,1.109c-1.582,0-2.814-0.557-3.697-1.67
				s-1.324-2.537-1.324-4.274v-0.461c0-1.729,0.439-3.149,1.318-4.263c0.879-1.114,2.108-1.67,3.69-1.67
				c1.274,0,2.336,0.385,3.188,1.153c0.849,0.77,1.259,1.78,1.229,3.032l-0.021,0.066h-1.176c0-0.952-0.312-1.712-0.934-2.28
				s-1.384-0.852-2.285-0.852c-1.245,0-2.171,0.458-2.778,1.374c-0.608,0.915-0.912,2.062-0.912,3.438v0.461
				c0,1.399,0.304,2.554,0.912,3.466C119.016,42.656,119.946,43.111,121.199,43.111z"/>
			<path fill="#666666" d="M127.692,37.871c0-1.75,0.479-3.186,1.439-4.307c0.959-1.12,2.229-1.681,3.812-1.681
				c1.59,0,2.864,0.561,3.823,1.681c0.959,1.121,1.439,2.557,1.439,4.307v0.363c0,1.758-0.479,3.196-1.435,4.312
				c-0.956,1.117-2.225,1.677-3.807,1.677c-1.597,0-2.875-0.56-3.834-1.677c-0.959-1.116-1.439-2.554-1.439-4.312L127.692,37.871
				L127.692,37.871z M129.01,38.234c0,1.377,0.348,2.534,1.043,3.472s1.666,1.405,2.912,1.405c1.223,0,2.184-0.469,2.884-1.405
				c0.699-0.938,1.049-2.095,1.049-3.472v-0.363c0-1.354-0.352-2.505-1.055-3.449c-0.703-0.945-1.67-1.417-2.9-1.417
				c-1.229,0-2.192,0.472-2.889,1.417c-0.696,0.944-1.043,2.095-1.043,3.449L129.01,38.234L129.01,38.234z"/>
			<path fill="#666666" d="M144.171,41.014l0.384,1.396h0.066l0.417-1.396l3.229-8.91h1.362l-4.517,11.887h-1.055l-4.525-11.887
				h1.361L144.171,41.014z"/>
			<path fill="#666666" d="M156.168,44.223c-1.538,0-2.787-0.545-3.746-1.633c-0.959-1.087-1.439-2.484-1.439-4.191v-0.604
				c0-1.714,0.485-3.127,1.456-4.241c0.971-1.113,2.173-1.67,3.609-1.67c1.443,0,2.558,0.463,3.345,1.39
				c0.788,0.927,1.182,2.174,1.182,3.741v1.021h-8.273v0.362c0,1.355,0.343,2.479,1.027,3.374c0.685,0.894,1.632,1.34,2.84,1.34
				c0.726,0,1.392-0.119,2-0.357c0.606-0.238,1.112-0.559,1.516-0.961l0.562,0.9c-0.417,0.439-0.966,0.805-1.644,1.094
				C157.924,44.077,157.113,44.223,156.168,44.223z M156.047,33.004c-1.011,0-1.842,0.363-2.494,1.087
				c-0.652,0.726-1.033,1.645-1.143,2.758l0.032,0.066h6.812V36.64c0-1.055-0.276-1.924-0.83-2.609
				C157.873,33.347,157.08,33.004,156.047,33.004z"/>
			<path fill="#666666" d="M168.66,33.235l-0.935-0.066c-0.828,0-1.507,0.233-2.038,0.698c-0.53,0.465-0.91,1.104-1.137,1.917v8.207
				h-1.318V32.104h1.154l0.165,1.978v0.132c0.344-0.732,0.806-1.304,1.384-1.714s1.268-0.615,2.065-0.615
				c0.161,0,0.314,0.013,0.461,0.039c0.146,0.026,0.267,0.053,0.363,0.083L168.66,33.235z"/>
			<path fill="#666666" d="M172.384,28.698h-1.308v-1.846h1.308V28.698z M172.384,43.991h-1.308V32.104h1.308V43.991z"/>
			<path fill="#666666" d="M180.536,44.223c-1.538,0-2.787-0.545-3.746-1.633c-0.959-1.087-1.439-2.484-1.439-4.191v-0.604
				c0-1.714,0.485-3.127,1.456-4.241c0.97-1.113,2.173-1.67,3.609-1.67c1.442,0,2.558,0.463,3.345,1.39
				c0.788,0.927,1.181,2.174,1.181,3.741v1.021h-8.272v0.362c0,1.355,0.343,2.479,1.026,3.374c0.686,0.894,1.633,1.34,2.841,1.34
				c0.726,0,1.392-0.119,2-0.357c0.606-0.238,1.112-0.559,1.516-0.961l0.561,0.9c-0.417,0.439-0.965,0.805-1.643,1.094
				C182.292,44.077,181.481,44.223,180.536,44.223z M180.415,33.004c-1.012,0-1.843,0.363-2.494,1.087
				c-0.652,0.726-1.033,1.645-1.144,2.758l0.033,0.066h6.812V36.64c0-1.055-0.276-1.924-0.83-2.609
				C182.241,33.347,181.448,33.004,180.415,33.004z"/>
			<path fill="#666666" d="M194.719,40.947c0-0.557-0.229-1.042-0.687-1.456c-0.458-0.414-1.284-0.752-2.479-1.016
				c-1.406-0.293-2.452-0.694-3.137-1.203c-0.686-0.509-1.027-1.221-1.027-2.137c0-0.908,0.382-1.677,1.148-2.307
				c0.765-0.63,1.777-0.945,3.038-0.945c1.325,0,2.384,0.335,3.175,1.005c0.791,0.67,1.168,1.496,1.132,2.477l-0.022,0.066h-1.219
				c0-0.652-0.28-1.22-0.841-1.703c-0.56-0.483-1.302-0.725-2.225-0.725c-0.952,0-1.671,0.208-2.153,0.626
				c-0.483,0.417-0.726,0.904-0.726,1.461c0,0.542,0.207,0.991,0.621,1.346s1.24,0.668,2.479,0.939
				c1.392,0.308,2.444,0.736,3.159,1.285c0.714,0.55,1.07,1.289,1.07,2.22c0,0.988-0.4,1.792-1.202,2.411
				c-0.803,0.619-1.862,0.93-3.182,0.93c-1.442,0-2.576-0.346-3.399-1.033c-0.824-0.688-1.215-1.51-1.171-2.461l0.022-0.065h1.208
				c0.051,0.856,0.401,1.479,1.049,1.866c0.648,0.39,1.412,0.584,2.291,0.584c0.952,0,1.703-0.213,2.252-0.637
				C194.444,42.05,194.719,41.541,194.719,40.947z"/>
			<path fill="#666666" d="M206.002,28.698h-1.309v-1.846h1.309V28.698z M206.002,43.991h-1.309V32.104h1.309V43.991z"/>
			<path fill="#666666" d="M210.803,32.104l0.121,2.065c0.388-0.725,0.904-1.287,1.549-1.687c0.646-0.399,1.41-0.599,2.296-0.599
				c1.289,0,2.271,0.394,2.944,1.181s1.011,2.016,1.011,3.686v7.24h-1.318v-7.229c0-1.362-0.254-2.325-0.763-2.89
				c-0.509-0.563-1.231-0.846-2.17-0.846c-0.938,0-1.694,0.23-2.269,0.692c-0.575,0.461-0.991,1.08-1.247,1.856v8.416h-1.318V32.104
				H210.803z"/>
			<path fill="#666666" d="M236.962,40.102c0-0.819-0.326-1.498-0.979-2.032c-0.651-0.535-1.758-1.037-3.317-1.505
				c-1.707-0.469-3.005-1.053-3.896-1.752c-0.89-0.699-1.335-1.649-1.335-2.851c0-1.224,0.498-2.229,1.494-3.016
				c0.996-0.787,2.267-1.181,3.812-1.181c1.626,0,2.933,0.445,3.922,1.335c0.988,0.89,1.468,2.02,1.438,3.39l-0.021,0.065h-1.23
				c0-1.055-0.382-1.93-1.147-2.625c-0.766-0.696-1.752-1.043-2.96-1.043c-1.246,0-2.222,0.295-2.929,0.884s-1.06,1.313-1.06,2.169
				c0,0.813,0.32,1.481,0.961,2.005s1.771,1.012,3.389,1.466c1.686,0.491,2.971,1.095,3.856,1.813
				c0.886,0.718,1.329,1.67,1.329,2.856c0,1.245-0.519,2.247-1.556,3.005c-1.035,0.758-2.342,1.138-3.917,1.138
				c-1.574,0-2.947-0.402-4.119-1.203c-1.173-0.803-1.74-1.973-1.703-3.511l0.021-0.065h1.219c0,1.238,0.466,2.158,1.396,2.763
				c0.93,0.604,1.992,0.905,3.186,0.905c1.224,0,2.22-0.279,2.988-0.84C236.577,41.711,236.962,40.988,236.962,40.102z"/>
			<path fill="#666666" d="M245.564,43.111c0.842,0,1.587-0.248,2.236-0.746c0.647-0.498,0.972-1.19,0.972-2.077h1.175l0.022,0.065
				c0.029,1.1-0.403,2.019-1.297,2.758c-0.895,0.738-1.93,1.109-3.109,1.109c-1.582,0-2.813-0.557-3.696-1.67
				c-0.884-1.113-1.324-2.537-1.324-4.274v-0.461c0-1.729,0.438-3.149,1.317-4.263c0.879-1.114,2.109-1.67,3.691-1.67
				c1.274,0,2.336,0.385,3.187,1.153c0.85,0.77,1.26,1.78,1.23,3.032l-0.022,0.066h-1.175c0-0.952-0.312-1.712-0.934-2.28
				s-1.384-0.852-2.285-0.852c-1.245,0-2.171,0.458-2.779,1.374c-0.607,0.915-0.912,2.062-0.912,3.438v0.461
				c0,1.399,0.305,2.554,0.912,3.466C243.381,42.656,244.312,43.111,245.564,43.111z"/>
			<path fill="#666666" d="M254.265,28.698h-1.308v-1.846h1.308V28.698z M254.265,43.991h-1.308V32.104h1.308V43.991z"/>
			<path fill="#666666" d="M262.417,44.223c-1.538,0-2.787-0.545-3.746-1.633c-0.959-1.087-1.439-2.484-1.439-4.191v-0.604
				c0-1.714,0.485-3.127,1.456-4.241c0.971-1.113,2.173-1.67,3.609-1.67c1.442,0,2.558,0.463,3.345,1.39
				c0.788,0.927,1.181,2.174,1.181,3.741v1.021h-8.272v0.362c0,1.355,0.343,2.479,1.027,3.374c0.685,0.894,1.632,1.34,2.84,1.34
				c0.726,0,1.392-0.119,2-0.357c0.606-0.238,1.112-0.559,1.516-0.961l0.562,0.9c-0.417,0.439-0.966,0.805-1.644,1.094
				C264.173,44.077,263.362,44.223,262.417,44.223z M262.296,33.004c-1.011,0-1.842,0.363-2.494,1.087
				c-0.652,0.726-1.033,1.645-1.143,2.758l0.032,0.066h6.812V36.64c0-1.055-0.276-1.924-0.83-2.609
				C264.122,33.347,263.329,33.004,262.296,33.004z"/>
			<path fill="#666666" d="M270.646,32.104l0.121,2.065c0.388-0.725,0.904-1.287,1.549-1.687c0.646-0.399,1.41-0.599,2.296-0.599
				c1.289,0,2.271,0.394,2.944,1.181s1.011,2.016,1.011,3.686v7.24h-1.317v-7.229c0-1.362-0.254-2.325-0.764-2.89
				c-0.509-0.563-1.231-0.846-2.17-0.846c-0.938,0-1.693,0.23-2.269,0.692c-0.575,0.461-0.991,1.08-1.247,1.856v8.416h-1.318V32.104
				H270.646z"/>
			<path fill="#666666" d="M286.356,43.111c0.842,0,1.587-0.248,2.236-0.746c0.647-0.498,0.972-1.19,0.972-2.077h1.175l0.022,0.065
				c0.029,1.1-0.403,2.019-1.297,2.758c-0.895,0.738-1.93,1.109-3.109,1.109c-1.582,0-2.813-0.557-3.697-1.67
				c-0.883-1.113-1.323-2.537-1.323-4.274v-0.461c0-1.729,0.438-3.149,1.317-4.263c0.879-1.114,2.109-1.67,3.691-1.67
				c1.273,0,2.336,0.385,3.187,1.153c0.85,0.77,1.26,1.78,1.23,3.032l-0.022,0.066h-1.175c0-0.952-0.312-1.712-0.934-2.28
				s-1.384-0.852-2.285-0.852c-1.245,0-2.171,0.458-2.779,1.374c-0.607,0.915-0.912,2.062-0.912,3.438v0.461
				c0,1.399,0.305,2.554,0.912,3.466C284.173,42.656,285.104,43.111,286.356,43.111z"/>
			<path fill="#666666" d="M298.101,44.223c-1.538,0-2.787-0.545-3.746-1.633c-0.959-1.087-1.438-2.484-1.438-4.191v-0.604
				c0-1.714,0.484-3.127,1.456-4.241c0.97-1.113,2.173-1.67,3.608-1.67c1.443,0,2.559,0.463,3.346,1.39
				c0.787,0.927,1.181,2.174,1.181,3.741v1.021h-8.273v0.362c0,1.355,0.344,2.479,1.027,3.374c0.685,0.894,1.632,1.34,2.84,1.34
				c0.727,0,1.393-0.119,2-0.357s1.113-0.559,1.517-0.961l0.561,0.9c-0.417,0.439-0.965,0.805-1.643,1.094
				C299.857,44.077,299.046,44.223,298.101,44.223z M297.98,33.004c-1.011,0-1.842,0.363-2.494,1.087
				c-0.651,0.726-1.032,1.645-1.143,2.758l0.033,0.066h6.812V36.64c0-1.055-0.275-1.924-0.83-2.609
				C299.806,33.347,299.013,33.004,297.98,33.004z"/>
		</g>
	</g>
</g>
<g id="Layer_2" display="none">
	
		<line display="inline" fill="none" stroke="#000000" stroke-width="0.5" stroke-miterlimit="10" x1="1353.545" y1="6288.398" x2="1503.56" y2="6242.574"/>
	
		<line display="inline" fill="none" stroke="#000000" stroke-width="0.5" stroke-miterlimit="10" x1="1503.56" y1="6242.574" x2="1653.573" y2="6196.75"/>
	
		<line display="inline" fill="none" stroke="#000000" stroke-width="0.5" stroke-miterlimit="10" x1="1730.24" y1="6242.574" x2="1880.256" y2="6288.398"/>
	
		<line display="inline" fill="none" stroke="#000000" stroke-width="0.5" stroke-miterlimit="10" x1="1580.227" y1="6196.75" x2="1730.24" y2="6242.574"/>
</g>
</svg>
